<svg width="104" height="52" viewBox="0 0 104 52" fill="none" xmlns="http://www.w3.org/2000/svg">
<g clip-path="url(#clip0_2_183)">
<path d="M13.62 44.0002L13.32 42.7102H1.68L0 41.0602V22.0602L1.68 20.3902H66.68V1.67015L68.34 0.000150882H92.07C94.0349 -0.0114301 95.9455 0.643982 97.4895 1.85921C99.0335 3.07445 100.12 4.77759 100.57 6.69015L101.26 9.62015C103.08 17.3481 104 25.2608 104 33.2002V41.0602L102.32 42.7302H95.68L95.39 44.0002C94.8604 46.271 93.578 48.2958 91.7515 49.7454C89.925 51.1949 87.6618 51.9838 85.33 51.9838C82.9982 51.9838 80.735 51.1949 78.9085 49.7454C77.082 48.2958 75.7996 46.271 75.27 44.0002L75 42.7302H34L33.73 44.0002C33.2047 46.2734 31.9246 48.3015 30.0985 49.7537C28.2724 51.2059 26.0081 51.9965 23.675 51.9965C21.3419 51.9965 19.0776 51.2059 17.2515 49.7537C15.4254 48.3015 14.1453 46.2734 13.62 44.0002ZM15.34 41.7302C15.3301 43.3822 15.8111 44.9999 16.7219 46.3782C17.6327 47.7565 18.9323 48.8332 20.4559 49.4718C21.9796 50.1104 23.6585 50.2822 25.2799 49.9652C26.9012 49.6483 28.3919 48.8569 29.5629 47.6916C30.7339 46.5262 31.5324 45.0394 31.8571 43.4195C32.1819 41.7997 32.0182 40.12 31.387 38.5933C30.7557 37.0666 29.6852 35.7618 28.3113 34.8444C26.9374 33.9269 25.322 33.4382 23.67 33.4402C22.5774 33.4388 21.4952 33.6527 20.4853 34.0696C19.4754 34.4865 18.5575 35.0983 17.7839 35.87C17.0104 36.6416 16.3965 37.5581 15.9771 38.567C15.5578 39.5759 15.3413 40.6576 15.34 41.7502V41.7302ZM76.99 41.7302C76.9801 43.3817 77.4608 44.9991 78.3712 46.3772C79.2815 47.7552 80.5806 48.832 82.1036 49.4709C83.6267 50.1098 85.3051 50.2821 86.9262 49.966C88.5473 49.6498 90.038 48.8595 91.2094 47.6951C92.3807 46.5308 93.18 45.0448 93.5059 43.4257C93.8318 41.8065 93.6696 40.1271 93.0398 38.6002C92.4101 37.0734 91.3412 35.7679 89.9686 34.8492C88.596 33.9306 86.9816 33.4402 85.33 33.4402C84.2374 33.4388 83.1552 33.6527 82.1453 34.0696C81.1354 34.4865 80.2175 35.0983 79.4439 35.87C78.6704 36.6416 78.0565 37.5581 77.6371 38.567C77.2178 39.5759 77.0013 40.6576 77 41.7502L76.99 41.7302ZM13.32 40.7302L13.62 39.4402C14.1453 37.1669 15.4254 35.1388 17.2515 33.6866C19.0776 32.2344 21.3419 31.4438 23.675 31.4438C26.0081 31.4438 28.2724 32.2344 30.0985 33.6866C31.9246 35.1388 33.2047 37.1669 33.73 39.4402L34.03 40.7302H66.66V22.3502H2V40.7602L13.32 40.7302ZM74.98 40.7302L75.27 39.4402C75.7996 37.1693 77.082 35.1445 78.9085 33.6949C80.735 32.2454 82.9982 31.4565 85.33 31.4565C87.6618 31.4565 89.925 32.2454 91.7515 33.6949C93.578 35.1445 94.8604 37.1693 95.39 39.4402L95.68 40.7302H102V33.2002C102 30.1402 101.86 27.0002 101.56 23.8502L101.42 22.3502H86.36C84.3548 22.3528 82.4303 21.5609 81.0078 20.1477C79.5852 18.7345 78.7806 16.8153 78.77 14.8102V2.00015H68.64V40.7602L74.98 40.7302ZM101.21 20.3502L100.93 18.4601C100.51 15.6201 99.93 12.7902 99.33 10.0402L98.63 7.11015C98.2719 5.64404 97.4293 4.34178 96.2387 3.41433C95.048 2.48689 93.5792 1.98858 92.07 2.00015H80.75V14.8102C80.7579 16.2919 81.3528 17.7101 82.4043 18.7541C83.4558 19.7981 84.8782 20.3828 86.36 20.3801L101.21 20.3502Z" fill="#616666"/>
<path d="M118 -44H-605V72.5H118V-44Z" stroke="white" stroke-miterlimit="10"/>
</g>
<defs>
<clipPath id="clip0_2_183">
<rect width="104" height="52" fill="white"/>
</clipPath>
</defs>
</svg>
