<svg width="120" height="52" viewBox="0 0 120 52" fill="none" xmlns="http://www.w3.org/2000/svg">
<g clip-path="url(#clip0_2_165)">
<path d="M423 -44H-300V72.5H423V-44Z" stroke="white" stroke-miterlimit="10"/>
<path fill-rule="evenodd" clip-rule="evenodd" d="M119.93 30.21L112 23H79.66L62 6.93997V0.159973C61.1802 0.0290034 60.3499 -0.0245659 59.52 -2.67606e-05C58.6768 -0.025895 57.8331 0.0276747 57 0.159973V7.15997L40.12 23H26.12C12.77 23 9.42 23 8.53 22.94L0.11 30.22L0 33L2.56 36.34H6.34V36.63C6.6 40.63 7.42 42.46 7.88 42.46H13.34C13.81 42.46 14.62 40.6 14.88 36.63V36.34H16.31V37.05H17.04V37.35C17.17 41.43 17.1 44.21 15.1 48.46L14.98 48.71L8.76 46.33V46.73L16.7 52L24.3 46.73V46.33L17.88 48.78V48.33C17.93 44.68 17.93 41.02 17.93 37.33V37.02H18.76V36.31H29.25L28.68 40.31L23.44 38.31V38.51L29.94 42.08L36.24 38.47L36.19 46.47L35.19 48.67L28.92 46.28V46.68L36.88 52L44.48 46.73V46.33L38.21 48.72L37.21 46.4V37.06H38V36.35H51.08L50.39 40.35L45.17 38.35V38.55L51.66 42.12L57.88 38.55V38.35L52.66 40.35L51.88 36.35H58.52V37.05H59.34V46.51L58.34 48.71L52 46.33V46.73L60 52L67.6 46.73V46.33L61.33 48.72L60.33 46.4V37.06H61V36.35H69.18L68.49 40.35L63.26 38.35V38.55L69.75 42.12L76 38.53V38.33L70.78 40.33L70 36.39H81.81V37.08H82.43V46.54L81.43 48.74L75.16 46.35V46.75L83.09 52L90.69 46.73V46.33L84.41 48.72L83.41 46.4V37.06H84V36.35H91.82L91.19 40.35L85.95 38.35V38.55L92.45 42.12L98.67 38.55V38.35L93.44 40.35L92.72 36.48L101.98 36.38V37.09H102.79V37.4C102.68 41.2 102.67 44.89 103.86 48.27L104.08 48.88L97.46 46.36V46.76L105.43 52L113.03 46.73V46.33L106.83 48.69L106.69 48.55C103.21 44.93 103.42 41.55 103.69 37.35V37.06H104.42V36.35H105.93V36.64C106.19 40.64 107 42.47 107.47 42.47H113C113.46 42.47 114.28 40.61 114.54 36.64V36.35H118.44L120 34.08L119.93 30.21ZM61 9.89997V8.62997H61.7L77.45 23H60.62V10.31L60.81 10.23C60.8686 10.1974 60.9172 10.1494 60.9507 10.0913C60.9842 10.0332 61.0012 9.96703 61 9.89997ZM58.37 1.53997H60.64V5.61997H58.37V1.53997ZM57.3 8.62997H58V9.89997C57.9982 9.96964 58.0172 10.0383 58.0546 10.097C58.092 10.1558 58.1461 10.2021 58.21 10.23L58.4 10.31V23H42.2L57.3 8.62997ZM9.92 24.29H110.44V25H9.92V24.29ZM92.68 25.6L96.79 31.74H92.68V25.6ZM91.68 26.41V31.74H79.3V26.4L91.68 26.41ZM78.27 31.74H75.79L74.6 26.4H78.26L78.27 31.74ZM73.51 31.74H68.86V26.4H72.32L73.51 31.74ZM67.73 26.4V31.74H52V26.41L67.73 26.4ZM51.18 26.4V31.73H45.36L47.64 26.39L51.18 26.4ZM45.32 26.4L43 31.74H41L41.15 26.4H45.32ZM40.21 31.73H30.48V26.41H40.16L40.21 31.73ZM29.47 26.41V31.74H22.47L26 26.4L29.47 26.41ZM2.18 31.74L7 27.68L6.81 28.55C6.7 29.1 6.59 29.72 6.51 30.4H11.51C11.84 27.23 12.51 27.23 12.73 27.23C12.95 27.23 13.62 27.23 13.95 30.4H15.1C15.1 28.78 14.7 27.31 14.1 26.98L14.24 26.4H23.3L19.67 31.74H2.18ZM13.87 36.74C13.52 39.48 12.93 39.48 12.7 39.48C12.47 39.48 11.89 39.48 11.53 36.74V36.39H13.96L13.87 36.74ZM36.24 38.33L30.93 40.33L30.3 36.72L30.36 36.36H35.58V37.07H36.24V38.33ZM109.33 36.74C108.98 39.48 108.33 39.48 108.16 39.48C107.99 39.48 107.34 39.48 106.99 36.74V36.39H109.42L109.33 36.74ZM117.05 34.92H4.51V33.06H117.05V34.92ZM99.76 31.74L96.25 26.4H107.12L106.92 26.83C106.488 27.9779 106.212 29.1786 106.1 30.4H106.94C107.27 27.23 107.94 27.23 108.16 27.23C108.38 27.23 109.05 27.23 109.38 30.4H114.38C114.327 30.0333 114.277 29.7 114.23 29.4L114.09 28.59L117.89 31.79L99.76 31.74Z" fill="#616666"/>
</g>
<defs>
<clipPath id="clip0_2_165">
<rect width="120" height="52" fill="white"/>
</clipPath>
</defs>
</svg>
