<svg width="30" height="30" viewBox="0 0 30 30" fill="none" xmlns="http://www.w3.org/2000/svg">
<path d="M14.8171 7.31093C10.6888 7.31093 7.35893 10.6408 7.35893 14.7691C7.35893 18.8974 10.6888 22.2273 14.8171 22.2273C18.9454 22.2273 22.2753 18.8974 22.2753 14.7691C22.2753 10.6408 18.9454 7.31093 14.8171 7.31093ZM14.8171 19.6179C12.1493 19.6179 9.96832 17.4434 9.96832 14.7691C9.96832 12.0948 12.1428 9.92032 14.8171 9.92032C17.4914 9.92032 19.6659 12.0948 19.6659 14.7691C19.6659 17.4434 17.4849 19.6179 14.8171 19.6179ZM24.32 7.00585C24.32 7.97302 23.541 8.74545 22.5804 8.74545C21.6132 8.74545 20.8408 7.96653 20.8408 7.00585C20.8408 6.04518 21.6197 5.26626 22.5804 5.26626C23.541 5.26626 24.32 6.04518 24.32 7.00585ZM29.2596 8.77141C29.1493 6.44114 28.617 4.37699 26.9099 2.67635C25.2092 0.9757 23.1451 0.443437 20.8148 0.326599C18.4131 0.190287 11.2146 0.190287 8.81292 0.326599C6.48913 0.436946 4.42499 0.969209 2.71785 2.66986C1.01071 4.3705 0.484941 6.43465 0.368103 8.76492C0.231791 11.1666 0.231791 18.3651 0.368103 20.7668C0.47845 23.0971 1.01071 25.1612 2.71785 26.8619C4.42499 28.5625 6.48264 29.0948 8.81292 29.2116C11.2146 29.3479 18.4131 29.3479 20.8148 29.2116C23.1451 29.1013 25.2092 28.569 26.9099 26.8619C28.6105 25.1612 29.1428 23.0971 29.2596 20.7668C29.3959 18.3651 29.3959 11.1731 29.2596 8.77141ZM26.1569 23.3437C25.6506 24.616 24.6705 25.5961 23.3917 26.1089C21.4769 26.8684 16.9332 26.6931 14.8171 26.6931C12.701 26.6931 8.15083 26.8619 6.24247 26.1089C4.97023 25.6026 3.99009 24.6225 3.4773 23.3437C2.71785 21.4289 2.89311 16.8852 2.89311 14.7691C2.89311 12.653 2.72434 8.10284 3.4773 6.19448C3.9836 4.92224 4.96374 3.94209 6.24247 3.4293C8.15732 2.66986 12.701 2.84511 14.8171 2.84511C16.9332 2.84511 21.4834 2.67635 23.3917 3.4293C24.664 3.9356 25.6441 4.91575 26.1569 6.19448C26.9164 8.10933 26.7411 12.653 26.7411 14.7691C26.7411 16.8852 26.9164 21.4354 26.1569 23.3437Z" fill="#EC6608"/>
</svg>
