<svg width="83" height="83" viewBox="0 0 83 83" fill="none" xmlns="http://www.w3.org/2000/svg">
<g clip-path="url(#clip0_2_176)">
<path d="M82.585 0.399023C82.318 0.145275 81.9637 0.00378418 81.5953 0.00378418C81.227 0.00378418 80.8727 0.145275 80.6057 0.399023L75.3863 5.53864H42.6332L1.45245 46.3683C0.989016 46.8149 0.620391 47.3505 0.36861 47.9428C0.116829 48.5352 -0.0129395 49.1723 -0.0129395 49.8159C-0.0129395 50.4596 0.116829 51.0967 0.36861 51.689C0.620391 52.2814 0.989016 52.817 1.45245 53.2636L30.3269 81.5794C31.2635 82.4888 32.517 82.9982 33.8225 83C35.1457 83.0013 36.4172 82.4859 37.3659 81.5634L77.3815 41.069V7.54979L82.585 2.42614C82.7178 2.29944 82.8235 2.14712 82.8957 1.9784C82.9679 1.80967 83.0051 1.62804 83.0051 1.4445C83.0051 1.26097 82.9679 1.07934 82.8957 0.910612C82.8235 0.741883 82.7178 0.589563 82.585 0.46287V0.399023ZM32.2423 79.6161L3.51149 51.3004C3.30973 51.1094 3.14905 50.8792 3.03927 50.624C2.92949 50.3687 2.87293 50.0938 2.87303 49.8159C2.87262 49.5357 2.92898 49.2583 3.03871 49.0004C3.14844 48.7425 3.30927 48.5096 3.51149 48.3156L15.9615 35.9773L47.6132 67.1661L35.275 79.6161C34.8715 80.0158 34.3265 80.24 33.7586 80.24C33.1907 80.24 32.6458 80.0158 32.2423 79.6161ZM74.5723 39.9038L49.5765 65.1869L17.8769 33.9981L43.7984 8.29998H72.5292L65.7775 14.9879C64.4868 14.1686 62.96 13.8025 61.4382 13.9474C59.9163 14.0924 58.4861 14.7401 57.3734 15.7884C56.2606 16.8366 55.5287 18.2256 55.2932 19.7361C55.0577 21.2466 55.332 22.7925 56.0729 24.1297C56.8137 25.467 57.9789 26.5193 59.3844 27.1207C60.7899 27.722 62.3556 27.8381 63.8344 27.4506C65.3132 27.063 66.6208 26.194 67.5507 24.9806C68.4807 23.7672 68.98 22.2787 68.9698 20.75C68.9707 19.3882 68.5589 18.0581 67.7886 16.9352L74.6042 10.2473L74.5723 39.9038ZM66.1286 20.75C66.1445 21.5898 65.9099 22.4153 65.4549 23.1213C64.9998 23.8273 64.3449 24.3818 63.5735 24.7143C62.8022 25.0467 61.9493 25.1419 61.1236 24.9878C60.2979 24.8337 59.5368 24.4373 58.9372 23.8491C58.3377 23.2608 57.9268 22.5074 57.7571 21.6848C57.5873 20.8622 57.6663 20.0076 57.9839 19.2301C58.3016 18.4525 58.8436 17.7872 59.5408 17.3188C60.238 16.8504 61.0589 16.6001 61.8988 16.6C62.5283 16.6048 63.1491 16.7464 63.7184 17.015L60.9092 19.7763C60.6489 20.0367 60.5028 20.3898 60.5028 20.758C60.5028 21.1261 60.6489 21.4792 60.9092 21.7396C61.1774 21.992 61.5306 22.1344 61.8988 22.1386C62.2677 22.1376 62.622 21.9947 62.8884 21.7396L65.6976 18.9783C65.9709 19.5296 66.1181 20.1348 66.1286 20.75Z" fill="#616666"/>
<path d="M778.923 -70.2308H-375.096V115.721H778.923V-70.2308Z" stroke="white" stroke-miterlimit="10"/>
</g>
<defs>
<clipPath id="clip0_2_176">
<rect width="83" height="83" fill="white"/>
</clipPath>
</defs>
</svg>
