<svg width="200" height="80" viewBox="0 0 200 80" fill="none" xmlns="http://www.w3.org/2000/svg">
<path d="M52.6199 47.0676C50.8655 50.2428 48.7603 51.1248 47.8831 51.4777C47.7076 51.4777 47.5322 51.654 47.5322 51.8305C47.5322 52.0069 47.3568 52.1833 47.5322 52.1833C47.7076 53.2417 47.8831 55.5349 46.1287 58.5338C43.848 62.4147 38.9357 65.0607 33.848 62.0618C28.4094 58.8866 28.234 49.89 28.234 45.4799C28.234 45.1271 28.4094 44.9507 28.7603 44.9507C29.462 44.7743 30.3392 44.2451 30.8655 43.7159C31.041 43.5395 31.5673 43.3631 31.7427 43.7159C32.9708 44.7743 34.3743 46.5384 34.9006 47.4204C35.0761 47.5968 35.4269 47.7732 35.6024 47.5968C36.655 47.0676 37.7076 46.8912 38.4094 47.0676C38.5848 47.0676 38.5848 47.0676 38.7603 46.8912V46.5384C38.4094 46.0091 37.8831 45.1271 37.8831 43.7159C37.8831 43.3631 37.7076 43.1867 37.3568 43.1867C36.3041 43.1867 34.1989 42.8339 32.6199 42.3047C32.269 42.1283 32.0936 41.7755 32.269 41.4227C32.4445 40.5407 32.4445 39.835 32.269 38.953C32.269 38.6002 32.269 38.4238 32.6199 38.2474C36.3041 35.9542 44.3743 31.7205 49.8129 34.7193C54.5497 37.7182 54.7252 43.1867 52.6199 47.0676ZM25.6024 44.7743C24.9006 44.5979 24.0234 44.0687 23.4971 43.5395C23.3217 43.3631 22.7954 43.1867 22.6199 43.5395C21.3918 44.5979 19.9883 46.362 19.462 47.244C19.2866 47.4204 18.9357 47.5968 18.7603 47.4204C17.7076 46.8912 16.655 46.7148 15.9533 46.8912C15.7778 46.8912 15.7778 46.8912 15.6024 46.7148V46.362C15.9533 45.8327 16.4796 44.9507 16.4796 43.5395C16.4796 43.1867 16.655 43.0103 17.0059 43.0103C18.0585 43.0103 20.1638 42.6575 21.7427 42.1283C22.0936 41.9519 22.269 41.5991 22.0936 41.2463C21.9182 40.3642 21.9182 39.6586 22.0936 38.7766C22.0936 38.4238 22.0936 38.2474 21.7427 38.071C18.0585 35.7778 9.98834 31.5441 4.54975 34.5429C-0.713411 37.5418 -0.888851 43.1867 1.39185 47.0676C3.14624 50.2428 5.2515 51.1248 6.12869 51.4777C6.30413 51.4777 6.47957 51.654 6.47957 51.8305C6.47957 52.0069 6.65501 52.1833 6.47957 52.1833C6.30413 53.2417 6.12869 55.5349 7.88308 58.5338C10.1638 62.4147 15.0761 65.0607 20.1638 62.0618C25.6024 58.8866 25.7778 49.89 25.7778 45.4799C26.1287 45.1271 25.9533 44.9507 25.6024 44.7743ZM30.1638 40.0114C30.1638 38.2474 28.7603 37.0126 27.1813 37.0126C25.4269 37.0126 24.1989 38.4238 24.1989 40.0114C24.1989 41.7755 25.6024 43.0103 27.1813 43.0103C28.7603 43.0103 30.1638 41.5991 30.1638 40.0114ZM22.7954 36.4834C22.9708 36.6598 23.3217 36.4834 23.4971 36.307C24.0234 35.7778 24.7252 35.2486 25.6024 35.0721C25.9533 34.8957 26.1287 34.7194 26.1287 34.3665C25.7778 32.7789 24.9006 30.6621 24.5497 29.7801C24.3743 29.4272 24.5497 29.2509 24.7252 29.0744C25.7778 28.3688 26.3041 27.4868 26.655 26.9576C26.655 26.7812 26.8304 26.7812 27.0059 26.7812C27.1813 26.7812 27.1813 26.7812 27.3568 26.9576C27.7076 27.6632 28.234 28.5452 29.2866 29.0744C29.462 29.2509 29.6375 29.6036 29.462 29.7801C29.1111 30.6621 28.234 32.6025 27.8831 34.3665C27.8831 34.7194 28.0585 35.0721 28.4094 35.0721C29.2866 35.2486 29.9883 35.7778 30.5147 36.307C30.6901 36.4834 31.041 36.4834 31.2164 36.4834C35.0761 34.3665 42.7954 29.6037 42.7954 23.2531C42.7954 17.2554 38.0585 14.2566 33.6725 14.2566C30.1638 14.2566 28.234 15.4914 27.5322 16.197C27.3568 16.3734 27.3568 16.3734 27.1813 16.3734C27.0059 16.3734 26.8304 16.3734 26.8304 16.197C26.1287 15.4914 24.1989 14.2566 20.6901 14.2566C16.1287 14.2566 11.5673 17.2554 11.5673 23.2531C11.3919 29.6037 19.1111 34.3665 22.7954 36.4834Z" fill="white"/>
<path d="M82.0421 21.6091H81.2842C77.5369 21.6091 74.6105 22.5616 72.5053 24.4668C70.4421 26.3296 69.4105 29.653 69.4105 34.4371C69.4105 36.0036 69.5579 37.1043 69.8527 37.7394C70.1474 38.3321 70.2948 38.6708 70.2948 38.7554C68.0211 38.7554 66.3158 38.2897 65.179 37.3583C64.0842 36.3846 63.5369 34.797 63.5369 32.5954C63.5369 29.5895 64.2737 26.8588 65.7474 24.4033C67.2211 21.9054 69.5579 19.8944 72.7579 18.3703C76 16.8462 80.1053 16.0841 85.0737 16.0841C87.8527 16.0841 90.8421 16.3381 94.0421 16.8462C96.7369 17.3119 99.1369 17.5447 101.242 17.5447C103.937 17.5447 106.379 17.1002 108.568 16.2111C108.484 18.963 107.789 20.9952 106.484 22.3076C105.179 23.6201 103.242 24.2763 100.674 24.2763C99.3263 24.2763 97.979 24.1704 96.6316 23.9587C95.2842 23.7471 93.3684 23.3872 90.8842 22.8792L82.1684 63.6495H73.0737L82.0421 21.6091Z" fill="black"/>
<path d="M97.8597 31.8969H106.954L106.133 35.8342C107.565 34.5641 108.849 33.5904 109.986 32.913C111.165 32.2356 112.428 31.8969 113.776 31.8969C115.123 31.8969 116.176 32.3626 116.933 33.294C117.733 34.2254 118.133 35.3473 118.133 36.6598C118.133 37.8875 117.733 38.9671 116.933 39.8985C116.133 40.8299 115.018 41.2957 113.586 41.2957C112.66 41.2957 112.028 41.084 111.691 40.6606C111.397 40.1949 111.165 39.5387 110.997 38.6919C110.87 38.1416 110.744 37.7394 110.618 37.4853C110.491 37.2313 110.26 37.1043 109.923 37.1043C109.039 37.1043 108.281 37.2948 107.649 37.6759C107.06 38.0146 106.281 38.6284 105.312 39.5175L100.26 63.6495H91.165L97.8597 31.8969Z" fill="black"/>
<path d="M126.342 64.0305C123.227 64.0305 120.806 63.2261 119.079 61.6173C117.353 59.9662 116.49 57.4048 116.49 53.9332C116.49 51.0119 117.058 47.7943 118.195 44.2804C119.332 40.7664 121.185 37.7394 123.753 35.1992C126.321 32.6166 129.585 31.3253 133.542 31.3253C138.174 31.3253 140.49 33.3575 140.49 37.4218C140.49 39.7927 139.816 41.973 138.469 43.9629C137.121 45.9527 135.332 47.5615 133.1 48.7893C130.869 49.9747 128.49 50.6521 125.964 50.8214C125.879 52.0915 125.837 52.9383 125.837 53.3616C125.837 55.4361 126.195 56.8544 126.911 57.6165C127.627 58.3362 128.785 58.6961 130.385 58.6961C132.658 58.6961 134.595 58.1669 136.195 57.1084C137.837 56.05 139.627 54.4412 141.564 52.282H143.711C139.037 60.1143 133.248 64.0305 126.342 64.0305ZM126.469 47.7732C128.027 47.6885 129.5 47.1381 130.89 46.122C132.321 45.106 133.458 43.8147 134.3 42.2482C135.185 40.6818 135.627 39.0306 135.627 37.2948C135.627 35.559 135.1 34.6911 134.048 34.6911C132.532 34.6911 131.037 36.0247 129.564 38.6919C128.132 41.3592 127.1 44.3862 126.469 47.7732Z" fill="black"/>
<path d="M148.75 64.0305C146.308 64.0305 144.392 63.4166 143.003 62.1888C141.655 60.9187 140.982 59.0348 140.982 56.5369C140.982 55.5208 141.087 54.5047 141.298 53.4886L145.845 31.8969H154.94L150.392 53.4886C150.182 54.5471 150.076 55.3091 150.076 55.7748C150.076 57.1719 150.792 57.8705 152.224 57.8705C154.161 57.8705 155.95 56.6427 157.592 54.1872C159.276 51.7317 160.624 48.8104 161.634 45.4235C162.645 42.0365 163.15 39.1153 163.15 36.6598C163.066 36.8715 162.792 37.0408 162.329 37.1678C161.866 37.2525 161.466 37.2948 161.129 37.2948C160.413 37.2948 159.845 36.9561 159.424 36.2787C159.045 35.6014 158.855 34.8605 158.855 34.0561C158.855 33.04 159.171 32.2144 159.803 31.5794C160.476 30.9443 161.466 30.6268 162.771 30.6268C164.161 30.6268 165.171 31.156 165.803 32.2144C166.434 33.2305 166.75 34.5429 166.75 36.1517C166.75 39.962 166.098 44.0475 164.792 48.4082C163.487 52.7266 161.487 56.4099 158.792 59.4581C156.098 62.5064 152.75 64.0305 148.75 64.0305Z" fill="black"/>
<path d="M176.923 63.9035C173.807 63.9035 171.344 63.0991 169.533 61.4903C167.723 59.8815 166.817 57.3413 166.817 53.8697C166.817 50.9484 167.386 47.752 168.523 44.2804C169.659 40.7664 171.512 37.7394 174.08 35.1992C176.649 32.6166 179.933 31.3253 183.933 31.3253C188.901 31.3253 191.575 34.1831 191.954 39.8985C192.88 39.6869 193.701 39.1788 194.417 38.3744C195.133 37.5277 195.807 36.5751 196.438 35.5167H198.459C197.323 37.8029 196.312 39.6022 195.428 40.9146C194.544 42.1847 193.386 43.222 191.954 44.0264C191.701 48.006 190.88 51.4988 189.491 54.5047C188.144 57.5106 186.375 59.8392 184.186 61.4903C181.996 63.0991 179.575 63.9035 176.923 63.9035ZM179.449 58.188C181.007 58.188 182.459 56.9179 183.807 54.3777C185.154 51.8375 186.08 48.7046 186.586 44.979C185.575 44.5979 185.07 43.6453 185.07 42.1212C185.07 40.4701 185.659 39.3693 186.838 38.819C186.754 37.4642 186.523 36.5328 186.144 36.0247C185.807 35.4743 185.238 35.1992 184.438 35.1992C183.049 35.1992 181.723 36.2152 180.459 38.2474C179.196 40.2372 178.165 42.6716 177.365 45.5505C176.607 48.3871 176.228 50.8849 176.228 53.0441C176.228 55.0763 176.459 56.4522 176.923 57.1719C177.386 57.8493 178.228 58.188 179.449 58.188Z" fill="black"/>
</svg>
