<svg width="200" height="80" viewBox="0 0 200 80" fill="none" xmlns="http://www.w3.org/2000/svg">
<path d="M52.6199 46.9232C50.8655 50.0985 48.7603 50.9805 47.8831 51.3333C47.7076 51.3333 47.5322 51.5097 47.5322 51.6861C47.5322 51.8625 47.3568 52.0389 47.5322 52.0389C47.7076 53.0974 47.8831 55.3906 46.1287 58.3894C43.848 62.2703 38.9357 64.9164 33.848 61.9175C28.4094 58.7423 28.234 49.7457 28.234 45.3356C28.234 44.9828 28.4094 44.8064 28.7603 44.8064C29.462 44.63 30.3392 44.1008 30.8655 43.5716C31.041 43.3952 31.5673 43.2188 31.7427 43.5716C32.9708 44.63 34.3743 46.394 34.9006 47.276C35.0761 47.4524 35.4269 47.6289 35.6024 47.4525C36.655 46.9232 37.7076 46.7468 38.4094 46.9232C38.5848 46.9232 38.5848 46.9232 38.7603 46.7468V46.394C38.4094 45.8648 37.8831 44.9828 37.8831 43.5716C37.8831 43.2188 37.7076 43.0424 37.3568 43.0424C36.3041 43.0424 34.1989 42.6896 32.6199 42.1604C32.269 41.984 32.0936 41.6311 32.269 41.2783C32.4445 40.3963 32.4445 39.6907 32.269 38.8087C32.269 38.4559 32.269 38.2795 32.6199 38.1031C36.3041 35.8098 44.3743 31.5762 49.8129 34.575C54.5497 37.5739 54.7252 43.0424 52.6199 46.9232ZM25.6024 44.63C24.9006 44.4536 24.0234 43.9244 23.4971 43.3952C23.3217 43.2188 22.7954 43.0424 22.6199 43.3952C21.3918 44.4536 19.9883 46.2176 19.462 47.0996C19.2866 47.276 18.9357 47.4524 18.7603 47.276C17.7076 46.7468 16.655 46.5704 15.9533 46.7468C15.7778 46.7468 15.7778 46.7468 15.6024 46.5704V46.2176C15.9533 45.6884 16.4796 44.8064 16.4796 43.3952C16.4796 43.0424 16.655 42.866 17.0059 42.866C18.0585 42.866 20.1638 42.5132 21.7427 41.9839C22.0936 41.8075 22.269 41.4547 22.0936 41.1019C21.9182 40.2199 21.9182 39.5143 22.0936 38.6323C22.0936 38.2795 22.0936 38.1031 21.7427 37.9267C18.0585 35.6334 9.98834 31.3998 4.54975 34.3986C-0.713411 37.3975 -0.888851 43.0424 1.39185 46.9232C3.14624 50.0985 5.2515 50.9805 6.12869 51.3333C6.30413 51.3333 6.47957 51.5097 6.47957 51.6861C6.47957 51.8625 6.65501 52.0389 6.47957 52.0389C6.30413 53.0974 6.12869 55.3906 7.88308 58.3894C10.1638 62.2703 15.0761 64.9164 20.1638 61.9175C25.6024 58.7423 25.7778 49.7457 25.7778 45.3356C26.1287 44.9828 25.9533 44.8064 25.6024 44.63ZM30.1638 39.8671C30.1638 38.1031 28.7603 36.8683 27.1813 36.8683C25.4269 36.8683 24.1989 38.2795 24.1989 39.8671C24.1989 41.6311 25.6024 42.866 27.1813 42.866C28.7603 42.866 30.1638 41.4547 30.1638 39.8671ZM22.7954 36.339C22.9708 36.5154 23.3217 36.339 23.4971 36.1626C24.0234 35.6334 24.7252 35.1042 25.6024 34.9278C25.9533 34.7514 26.1287 34.575 26.1287 34.2222C25.7778 32.6346 24.9006 30.5177 24.5497 29.6357C24.3743 29.2829 24.5497 29.1065 24.7252 28.9301C25.7778 28.2245 26.3041 27.3425 26.655 26.8133C26.655 26.6369 26.8304 26.6369 27.0059 26.6369C27.1813 26.6369 27.1813 26.6369 27.3568 26.8133C27.7076 27.5189 28.234 28.4009 29.2866 28.9301C29.462 29.1065 29.6375 29.4593 29.462 29.6357C29.1111 30.5177 28.234 32.4582 27.8831 34.2222C27.8831 34.575 28.0585 34.9278 28.4094 34.9278C29.2866 35.1042 29.9883 35.6334 30.5147 36.1626C30.6901 36.339 31.041 36.339 31.2164 36.339C35.0761 34.2222 42.7954 29.4593 42.7954 23.1088C42.7954 17.1111 38.0585 14.1122 33.6725 14.1122C30.1638 14.1122 28.234 15.3471 27.5322 16.0527C27.3568 16.2291 27.3568 16.2291 27.1813 16.2291C27.0059 16.2291 26.8304 16.2291 26.8304 16.0527C26.1287 15.3471 24.1989 14.1122 20.6901 14.1122C16.1287 14.1122 11.5673 17.1111 11.5673 23.1088C11.3919 29.4593 19.1111 34.2222 22.7954 36.339Z" fill="#0DB04B"/>
<path d="M82.0421 21.4647H81.2842C77.5369 21.4647 74.6105 22.4173 72.5053 24.3225C70.4421 26.1853 69.4105 29.5087 69.4105 34.2928C69.4105 35.8592 69.5579 36.96 69.8527 37.595C70.1474 38.1878 70.2948 38.5265 70.2948 38.6111C68.0211 38.6111 66.3158 38.1454 65.179 37.214C64.0842 36.2403 63.5369 34.6526 63.5369 32.4511C63.5369 29.4452 64.2737 26.7145 65.7474 24.259C67.2211 21.7611 69.5579 19.7501 72.7579 18.226C76 16.7019 80.1053 15.9398 85.0737 15.9398C87.8527 15.9398 90.8421 16.1938 94.0421 16.7018C96.7369 17.1676 99.1369 17.4004 101.242 17.4004C103.937 17.4004 106.379 16.9559 108.568 16.0668C108.484 18.8187 107.789 20.8509 106.484 22.1633C105.179 23.4757 103.242 24.132 100.674 24.132C99.3263 24.132 97.979 24.0261 96.6316 23.8144C95.2842 23.6027 93.3684 23.2429 90.8842 22.7348L82.1684 63.5051H73.0737L82.0421 21.4647Z" fill="black"/>
<path d="M97.8597 31.7526H106.954L106.133 35.6899C107.565 34.4198 108.849 33.446 109.986 32.7687C111.165 32.0913 112.428 31.7526 113.776 31.7526C115.123 31.7526 116.176 32.2183 116.933 33.1497C117.733 34.0811 118.133 35.203 118.133 36.5155C118.133 37.7432 117.733 38.8228 116.933 39.7542C116.133 40.6856 115.018 41.1513 113.586 41.1513C112.66 41.1513 112.028 40.9396 111.691 40.5163C111.397 40.0506 111.165 39.3944 110.997 38.5476C110.87 37.9972 110.744 37.595 110.618 37.341C110.491 37.087 110.26 36.96 109.923 36.96C109.039 36.96 108.281 37.1505 107.649 37.5315C107.06 37.8702 106.281 38.4841 105.312 39.3732L100.26 63.5051H91.165L97.8597 31.7526Z" fill="black"/>
<path d="M126.342 63.8862C123.227 63.8862 120.806 63.0818 119.079 61.473C117.353 59.8218 116.49 57.2605 116.49 53.7889C116.49 50.8676 117.058 47.65 118.195 44.1361C119.332 40.6221 121.185 37.595 123.753 35.0548C126.321 32.4723 129.585 31.181 133.542 31.181C138.174 31.181 140.49 33.2132 140.49 37.2775C140.49 39.6484 139.816 41.8287 138.469 43.8186C137.121 45.8084 135.332 47.4172 133.1 48.6449C130.869 49.8304 128.49 50.5078 125.964 50.6771C125.879 51.9472 125.837 52.7939 125.837 53.2173C125.837 55.2918 126.195 56.7101 126.911 57.4722C127.627 58.1919 128.785 58.5517 130.385 58.5517C132.658 58.5517 134.595 58.0225 136.195 56.9641C137.837 55.9057 139.627 54.2969 141.564 52.1377H143.711C139.037 59.97 133.248 63.8862 126.342 63.8862ZM126.469 47.6289C128.027 47.5442 129.5 46.9938 130.89 45.9777C132.321 44.9616 133.458 43.6704 134.3 42.1039C135.185 40.5375 135.627 38.8863 135.627 37.1505C135.627 35.4147 135.1 34.5468 134.048 34.5468C132.532 34.5468 131.037 35.8804 129.564 38.5476C128.132 41.2148 127.1 44.2419 126.469 47.6289Z" fill="black"/>
<path d="M148.75 63.8862C146.308 63.8862 144.392 63.2723 143.003 62.0445C141.655 60.7744 140.982 58.8904 140.982 56.3926C140.982 55.3765 141.087 54.3604 141.298 53.3443L145.845 31.7526H154.94L150.392 53.3443C150.182 54.4027 150.076 55.1648 150.076 55.6305C150.076 57.0276 150.792 57.7262 152.224 57.7262C154.161 57.7262 155.95 56.4984 157.592 54.0429C159.276 51.5873 160.624 48.6661 161.634 45.2792C162.645 41.8922 163.15 38.971 163.15 36.5155C163.066 36.7271 162.792 36.8965 162.329 37.0235C161.866 37.1082 161.466 37.1505 161.129 37.1505C160.413 37.1505 159.845 36.8118 159.424 36.1344C159.045 35.457 158.855 34.7161 158.855 33.9117C158.855 32.8957 159.171 32.0701 159.803 31.435C160.476 30.8 161.466 30.4825 162.771 30.4825C164.161 30.4825 165.171 31.0117 165.803 32.0701C166.434 33.0862 166.75 34.3986 166.75 36.0074C166.75 39.8177 166.098 43.9032 164.792 48.2639C163.487 52.5823 161.487 56.2656 158.792 59.3138C156.098 62.3621 152.75 63.8862 148.75 63.8862Z" fill="black"/>
<path d="M176.923 63.7592C173.807 63.7592 171.344 62.9548 169.533 61.346C167.723 59.7372 166.817 57.197 166.817 53.7254C166.817 50.8041 167.386 47.6077 168.523 44.1361C169.659 40.6221 171.512 37.595 174.08 35.0548C176.649 32.4723 179.933 31.181 183.933 31.181C188.901 31.181 191.575 34.0388 191.954 39.7542C192.88 39.5425 193.701 39.0345 194.417 38.2301C195.133 37.3834 195.807 36.4308 196.438 35.3724H198.459C197.323 37.6586 196.312 39.4579 195.428 40.7703C194.544 42.0404 193.386 43.0777 191.954 43.8821C191.701 47.8617 190.88 51.3545 189.491 54.3604C188.144 57.3663 186.375 59.6948 184.186 61.346C181.996 62.9548 179.575 63.7592 176.923 63.7592ZM179.449 58.0437C181.007 58.0437 182.459 56.7736 183.807 54.2334C185.154 51.6932 186.08 48.5603 186.586 44.8346C185.575 44.4536 185.07 43.501 185.07 41.9769C185.07 40.3258 185.659 39.225 186.838 38.6746C186.754 37.3199 186.523 36.3884 186.144 35.8804C185.807 35.33 185.238 35.0548 184.438 35.0548C183.049 35.0548 181.723 36.0709 180.459 38.1031C179.196 40.0929 178.165 42.5273 177.365 45.4062C176.607 48.2427 176.228 50.7406 176.228 52.8998C176.228 54.932 176.459 56.3079 176.923 57.0276C177.386 57.705 178.228 58.0437 179.449 58.0437Z" fill="black"/>
</svg>
