<svg width="200" height="80" viewBox="0 0 200 80" fill="none" xmlns="http://www.w3.org/2000/svg">
<path d="M52.6199 47.3047C50.8655 50.4799 48.7603 51.3619 47.8831 51.7148C47.7076 51.7148 47.5322 51.8912 47.5322 52.0676C47.5322 52.244 47.3568 52.4204 47.5322 52.4204C47.7076 53.4788 47.8831 55.772 46.1287 58.7709C43.848 62.6518 38.9357 65.2978 33.848 62.299C28.4094 59.1237 28.234 50.1271 28.234 45.717C28.234 45.3642 28.4094 45.1878 28.7603 45.1878C29.462 45.0114 30.3392 44.4822 30.8655 43.953C31.041 43.7766 31.5673 43.6002 31.7427 43.953C32.9708 45.0114 34.3743 46.7755 34.9006 47.6575C35.0761 47.8339 35.4269 48.0103 35.6024 47.8339C36.655 47.3047 37.7076 47.1283 38.4094 47.3047C38.5848 47.3047 38.5848 47.3047 38.7603 47.1283V46.7755C38.4094 46.2463 37.8831 45.3642 37.8831 43.953C37.8831 43.6002 37.7076 43.4238 37.3568 43.4238C36.3041 43.4238 34.1989 43.071 32.6199 42.5418C32.269 42.3654 32.0936 42.0126 32.269 41.6598C32.4445 40.7778 32.4445 40.0721 32.269 39.1901C32.269 38.8373 32.269 38.6609 32.6199 38.4845C36.3041 36.1913 44.3743 31.9576 49.8129 34.9565C54.5497 37.9553 54.7252 43.4238 52.6199 47.3047ZM25.6024 45.0114C24.9006 44.835 24.0234 44.3058 23.4971 43.7766C23.3217 43.6002 22.7954 43.4238 22.6199 43.7766C21.3918 44.835 19.9883 46.5991 19.462 47.4811C19.2866 47.6575 18.9357 47.8339 18.7603 47.6575C17.7076 47.1283 16.655 46.9519 15.9533 47.1283C15.7778 47.1283 15.7778 47.1283 15.6024 46.9519V46.5991C15.9533 46.0699 16.4796 45.1878 16.4796 43.7766C16.4796 43.4238 16.655 43.2474 17.0059 43.2474C18.0585 43.2474 20.1638 42.8946 21.7427 42.3654C22.0936 42.189 22.269 41.8362 22.0936 41.4834C21.9182 40.6014 21.9182 39.8957 22.0936 39.0137C22.0936 38.6609 22.0936 38.4845 21.7427 38.3081C18.0585 36.0149 9.98834 31.7812 4.54975 34.7801C-0.713411 37.7789 -0.888851 43.4238 1.39185 47.3047C3.14624 50.4799 5.2515 51.3619 6.12869 51.7148C6.30413 51.7148 6.47957 51.8912 6.47957 52.0676C6.47957 52.244 6.65501 52.4204 6.47957 52.4204C6.30413 53.4788 6.12869 55.772 7.88308 58.7709C10.1638 62.6518 15.0761 65.2978 20.1638 62.299C25.6024 59.1237 25.7778 50.1271 25.7778 45.717C26.1287 45.3642 25.9533 45.1878 25.6024 45.0114ZM30.1638 40.2485C30.1638 38.4845 28.7603 37.2497 27.1813 37.2497C25.4269 37.2497 24.1989 38.6609 24.1989 40.2485C24.1989 42.0126 25.6024 43.2474 27.1813 43.2474C28.7603 43.2474 30.1638 41.8362 30.1638 40.2485ZM22.7954 36.7205C22.9708 36.8969 23.3217 36.7205 23.4971 36.5441C24.0234 36.0149 24.7252 35.4857 25.6024 35.3093C25.9533 35.1329 26.1287 34.9565 26.1287 34.6037C25.7778 33.016 24.9006 30.8992 24.5497 30.0172C24.3743 29.6644 24.5497 29.488 24.7252 29.3116C25.7778 28.6059 26.3041 27.7239 26.655 27.1947C26.655 27.0183 26.8304 27.0183 27.0059 27.0183C27.1813 27.0183 27.1813 27.0183 27.3568 27.1947C27.7076 27.9003 28.234 28.7823 29.2866 29.3116C29.462 29.488 29.6375 29.8408 29.462 30.0172C29.1111 30.8992 28.234 32.8396 27.8831 34.6037C27.8831 34.9565 28.0585 35.3093 28.4094 35.3093C29.2866 35.4857 29.9883 36.0149 30.5147 36.5441C30.6901 36.7205 31.041 36.7205 31.2164 36.7205C35.0761 34.6036 42.7954 29.8408 42.7954 23.4902C42.7954 17.4925 38.0585 14.4937 33.6725 14.4937C30.1638 14.4937 28.234 15.7285 27.5322 16.4341C27.3568 16.6105 27.3568 16.6105 27.1813 16.6105C27.0059 16.6105 26.8304 16.6105 26.8304 16.4341C26.1287 15.7285 24.1989 14.4937 20.6901 14.4937C16.1287 14.4937 11.5673 17.4925 11.5673 23.4902C11.3919 29.8408 19.1111 34.6036 22.7954 36.7205Z" fill="#040404"/>
<path d="M82.0421 21.8462H81.2842C77.5369 21.8462 74.6105 22.7988 72.5053 24.7039C70.4421 26.5667 69.4105 29.8902 69.4105 34.6742C69.4105 36.2407 69.5579 37.3414 69.8527 37.9765C70.1474 38.5692 70.2948 38.9079 70.2948 38.9926C68.0211 38.9926 66.3158 38.5269 65.179 37.5955C64.0842 36.6217 63.5369 35.0341 63.5369 32.8326C63.5369 29.8267 64.2737 27.0959 65.7474 24.6404C67.2211 22.1425 69.5579 20.1315 72.7579 18.6074C76 17.0833 80.1053 16.3212 85.0737 16.3212C87.8527 16.3212 90.8421 16.5752 94.0421 17.0833C96.7369 17.549 99.1369 17.7818 101.242 17.7818C103.937 17.7818 106.379 17.3373 108.568 16.4482C108.484 19.2001 107.789 21.2323 106.484 22.5447C105.179 23.8572 103.242 24.5134 100.674 24.5134C99.3263 24.5134 97.979 24.4076 96.6316 24.1959C95.2842 23.9842 93.3684 23.6243 90.8842 23.1163L82.1684 63.8866H73.0737L82.0421 21.8462Z" fill="black"/>
<path d="M97.8597 32.134H106.954L106.133 36.0713C107.565 34.8012 108.849 33.8275 109.986 33.1501C111.165 32.4727 112.428 32.134 113.776 32.134C115.123 32.134 116.176 32.5997 116.933 33.5311C117.733 34.4625 118.133 35.5845 118.133 36.8969C118.133 38.1247 117.733 39.2043 116.933 40.1357C116.133 41.0671 115.018 41.5328 113.586 41.5328C112.66 41.5328 112.028 41.3211 111.691 40.8977C111.397 40.432 111.165 39.7758 110.997 38.9291C110.87 38.3787 110.744 37.9765 110.618 37.7225C110.491 37.4684 110.26 37.3414 109.923 37.3414C109.039 37.3414 108.281 37.5319 107.649 37.913C107.06 38.2517 106.281 38.8656 105.312 39.7546L100.26 63.8866H91.165L97.8597 32.134Z" fill="black"/>
<path d="M126.342 64.2676C123.227 64.2676 120.806 63.4632 119.079 61.8544C117.353 60.2033 116.49 57.6419 116.49 54.1703C116.49 51.2491 117.058 48.0315 118.195 44.5175C119.332 41.0036 121.185 37.9765 123.753 35.4363C126.321 32.8537 129.585 31.5625 133.542 31.5625C138.174 31.5625 140.49 33.5946 140.49 37.659C140.49 40.0298 139.816 42.2102 138.469 44.2C137.121 46.1898 135.332 47.7986 133.1 49.0264C130.869 50.2118 128.49 50.8892 125.964 51.0585C125.879 52.3287 125.837 53.1754 125.837 53.5988C125.837 55.6733 126.195 57.0915 126.911 57.8536C127.627 58.5733 128.785 58.9332 130.385 58.9332C132.658 58.9332 134.595 58.404 136.195 57.3456C137.837 56.2871 139.627 54.6783 141.564 52.5192H143.711C139.037 60.3515 133.248 64.2676 126.342 64.2676ZM126.469 48.0103C128.027 47.9256 129.5 47.3752 130.89 46.3592C132.321 45.3431 133.458 44.0518 134.3 42.4854C135.185 40.9189 135.627 39.2678 135.627 37.5319C135.627 35.7961 135.1 34.9282 134.048 34.9282C132.532 34.9282 131.037 36.2618 129.564 38.9291C128.132 41.5963 127.1 44.6234 126.469 48.0103Z" fill="black"/>
<path d="M148.75 64.2676C146.308 64.2676 144.392 63.6537 143.003 62.426C141.655 61.1559 140.982 59.2719 140.982 56.774C140.982 55.7579 141.087 54.7418 141.298 53.7258L145.845 32.134H154.94L150.392 53.7258C150.182 54.7842 150.076 55.5462 150.076 56.0119C150.076 57.4091 150.792 58.1076 152.224 58.1076C154.161 58.1076 155.95 56.8799 157.592 54.4243C159.276 51.9688 160.624 49.0476 161.634 45.6606C162.645 42.2737 163.15 39.3524 163.15 36.8969C163.066 37.1086 162.792 37.2779 162.329 37.4049C161.866 37.4896 161.466 37.5319 161.129 37.5319C160.413 37.5319 159.845 37.1933 159.424 36.5159C159.045 35.8385 158.855 35.0976 158.855 34.2932C158.855 33.2771 159.171 32.4515 159.803 31.8165C160.476 31.1814 161.466 30.8639 162.771 30.8639C164.161 30.8639 165.171 31.3931 165.803 32.4515C166.434 33.4676 166.75 34.7801 166.75 36.3889C166.75 40.1992 166.098 44.2847 164.792 48.6454C163.487 52.9637 161.487 56.647 158.792 59.6952C156.098 62.7435 152.75 64.2676 148.75 64.2676Z" fill="black"/>
<path d="M176.923 64.1406C173.807 64.1406 171.344 63.3362 169.533 61.7274C167.723 60.1186 166.817 57.5784 166.817 54.1068C166.817 51.1856 167.386 47.9891 168.523 44.5175C169.659 41.0036 171.512 37.9765 174.08 35.4363C176.649 32.8537 179.933 31.5625 183.933 31.5625C188.901 31.5625 191.575 34.4202 191.954 40.1357C192.88 39.924 193.701 39.4159 194.417 38.6115C195.133 37.7648 195.807 36.8122 196.438 35.7538H198.459C197.323 38.04 196.312 39.8393 195.428 41.1517C194.544 42.4218 193.386 43.4591 191.954 44.2635C191.701 48.2432 190.88 51.7359 189.491 54.7418C188.144 57.7478 186.375 60.0763 184.186 61.7274C181.996 63.3362 179.575 64.1406 176.923 64.1406ZM179.449 58.4251C181.007 58.4251 182.459 57.155 183.807 54.6148C185.154 52.0746 186.08 48.9417 186.586 45.2161C185.575 44.835 185.07 43.8825 185.07 42.3583C185.07 40.7072 185.659 39.6065 186.838 39.0561C186.754 37.7013 186.523 36.7699 186.144 36.2618C185.807 35.7115 185.238 35.4363 184.438 35.4363C183.049 35.4363 181.723 36.4524 180.459 38.4845C179.196 40.4744 178.165 42.9087 177.365 45.7876C176.607 48.6242 176.228 51.1221 176.228 53.2812C176.228 55.3134 176.459 56.6893 176.923 57.4091C177.386 58.0864 178.228 58.4251 179.449 58.4251Z" fill="black"/>
</svg>
