<svg width="200" height="80" viewBox="0 0 200 80" fill="none" xmlns="http://www.w3.org/2000/svg">
<path d="M52.6199 47.449C50.8655 50.6243 48.7603 51.5063 47.8831 51.8591C47.7076 51.8591 47.5322 52.0355 47.5322 52.2119C47.5322 52.3883 47.3568 52.5647 47.5322 52.5647C47.7076 53.6231 47.8831 55.9164 46.1287 58.9152C43.848 62.7961 38.9357 65.4421 33.848 62.4433C28.4094 59.268 28.234 50.2715 28.234 45.8614C28.234 45.5086 28.4094 45.3322 28.7603 45.3322C29.462 45.1558 30.3392 44.6266 30.8655 44.0973C31.041 43.9209 31.5673 43.7445 31.7427 44.0973C32.9708 45.1558 34.3743 46.9198 34.9006 47.8018C35.0761 47.9782 35.4269 48.1546 35.6024 47.9782C36.655 47.449 37.7076 47.2726 38.4094 47.449C38.5848 47.449 38.5848 47.449 38.7603 47.2726V46.9198C38.4094 46.3906 37.8831 45.5086 37.8831 44.0973C37.8831 43.7445 37.7076 43.5681 37.3568 43.5681C36.3041 43.5681 34.1989 43.2153 32.6199 42.6861C32.269 42.5097 32.0936 42.1569 32.269 41.8041C32.4445 40.9221 32.4445 40.2165 32.269 39.3345C32.269 38.9817 32.269 38.8053 32.6199 38.6288C36.3041 36.3356 44.3743 32.1019 49.8129 35.1008C54.5497 38.0996 54.7252 43.5681 52.6199 47.449ZM25.6024 45.1558C24.9006 44.9794 24.0234 44.4502 23.4971 43.9209C23.3217 43.7445 22.7954 43.5681 22.6199 43.9209C21.3918 44.9794 19.9883 46.7434 19.462 47.6254C19.2866 47.8018 18.9357 47.9782 18.7603 47.8018C17.7076 47.2726 16.655 47.0962 15.9533 47.2726C15.7778 47.2726 15.7778 47.2726 15.6024 47.0962V46.7434C15.9533 46.2142 16.4796 45.3322 16.4796 43.9209C16.4796 43.5681 16.655 43.3917 17.0059 43.3917C18.0585 43.3917 20.1638 43.0389 21.7427 42.5097C22.0936 42.3333 22.269 41.9805 22.0936 41.6277C21.9182 40.7457 21.9182 40.0401 22.0936 39.1581C22.0936 38.8053 22.0936 38.6289 21.7427 38.4524C18.0585 36.1592 9.98834 31.9255 4.54975 34.9244C-0.713411 37.9232 -0.888851 43.5681 1.39185 47.449C3.14624 50.6243 5.2515 51.5063 6.12869 51.8591C6.30413 51.8591 6.47957 52.0355 6.47957 52.2119C6.47957 52.3883 6.65501 52.5647 6.47957 52.5647C6.30413 53.6231 6.12869 55.9164 7.88308 58.9152C10.1638 62.7961 15.0761 65.4421 20.1638 62.4433C25.6024 59.268 25.7778 50.2715 25.7778 45.8614C26.1287 45.5086 25.9533 45.3322 25.6024 45.1558ZM30.1638 40.3929C30.1638 38.6288 28.7603 37.394 27.1813 37.394C25.4269 37.394 24.1989 38.8053 24.1989 40.3929C24.1989 42.1569 25.6024 43.3917 27.1813 43.3917C28.7603 43.3917 30.1638 41.9805 30.1638 40.3929ZM22.7954 36.8648C22.9708 37.0412 23.3217 36.8648 23.4971 36.6884C24.0234 36.1592 24.7252 35.63 25.6024 35.4536C25.9533 35.2772 26.1287 35.1008 26.1287 34.748C25.7778 33.1604 24.9006 31.0435 24.5497 30.1615C24.3743 29.8087 24.5497 29.6323 24.7252 29.4559C25.7778 28.7503 26.3041 27.8682 26.655 27.339C26.655 27.1626 26.8304 27.1626 27.0059 27.1626C27.1813 27.1626 27.1813 27.1626 27.3568 27.339C27.7076 28.0447 28.234 28.9267 29.2866 29.4559C29.462 29.6323 29.6375 29.9851 29.462 30.1615C29.1111 31.0435 28.234 32.984 27.8831 34.748C27.8831 35.1008 28.0585 35.4536 28.4094 35.4536C29.2866 35.63 29.9883 36.1592 30.5147 36.6884C30.6901 36.8648 31.041 36.8648 31.2164 36.8648C35.0761 34.748 42.7954 29.9851 42.7954 23.6346C42.7954 17.6369 38.0585 14.638 33.6725 14.638C30.1638 14.638 28.234 15.8728 27.5322 16.5784C27.3568 16.7548 27.3568 16.7548 27.1813 16.7548C27.0059 16.7548 26.8304 16.7548 26.8304 16.5784C26.1287 15.8728 24.1989 14.638 20.6901 14.638C16.1287 14.638 11.5673 17.6369 11.5673 23.6346C11.3919 29.9851 19.1111 34.748 22.7954 36.8648Z" fill="black"/>
<path d="M82.0421 21.9905H81.2842C77.5369 21.9905 74.6105 22.9431 72.5053 24.8482C70.4421 26.711 69.4105 30.0345 69.4105 34.8185C69.4105 36.385 69.5579 37.4858 69.8527 38.1208C70.1474 38.7135 70.2948 39.0522 70.2948 39.1369C68.0211 39.1369 66.3158 38.6712 65.179 37.7398C64.0842 36.766 63.5369 35.1784 63.5369 32.9769C63.5369 29.971 64.2737 27.2403 65.7474 24.7847C67.2211 22.2869 69.5579 20.2759 72.7579 18.7517C76 17.2276 80.1053 16.4655 85.0737 16.4655C87.8527 16.4655 90.8421 16.7196 94.0421 17.2276C96.7369 17.6933 99.1369 17.9262 101.242 17.9262C103.937 17.9262 106.379 17.4816 108.568 16.5926C108.484 19.3444 107.789 21.3766 106.484 22.6891C105.179 24.0015 103.242 24.6577 100.674 24.6577C99.3263 24.6577 97.979 24.5519 96.6316 24.3402C95.2842 24.1285 93.3684 23.7686 90.8842 23.2606L82.1684 64.0309H73.0737L82.0421 21.9905Z" fill="white"/>
<path d="M97.8597 32.2783H106.954L106.133 36.2157C107.565 34.9455 108.849 33.9718 109.986 33.2944C111.165 32.617 112.428 32.2783 113.776 32.2783C115.123 32.2783 116.176 32.744 116.933 33.6754C117.733 34.6069 118.133 35.7288 118.133 37.0412C118.133 38.269 117.733 39.3486 116.933 40.28C116.133 41.2114 115.018 41.6771 113.586 41.6771C112.66 41.6771 112.028 41.4654 111.691 41.042C111.397 40.5763 111.165 39.9201 110.997 39.0734C110.87 38.523 110.744 38.1208 110.618 37.8668C110.491 37.6128 110.26 37.4858 109.923 37.4858C109.039 37.4858 108.281 37.6763 107.649 38.0573C107.06 38.396 106.281 39.0099 105.312 39.899L100.26 64.0309H91.165L97.8597 32.2783Z" fill="white"/>
<path d="M126.342 64.4119C123.227 64.4119 120.806 63.6075 119.079 61.9987C117.353 60.3476 116.49 57.7862 116.49 54.3146C116.49 51.3934 117.058 48.1758 118.195 44.6618C119.332 41.1479 121.185 38.1208 123.753 35.5806C126.321 32.9981 129.585 31.7068 133.542 31.7068C138.174 31.7068 140.49 33.739 140.49 37.8033C140.49 40.1741 139.816 42.3545 138.469 44.3443C137.121 46.3341 135.332 47.9429 133.1 49.1707C130.869 50.3561 128.49 51.0335 125.964 51.2029C125.879 52.473 125.837 53.3197 125.837 53.7431C125.837 55.8176 126.195 57.2359 126.911 57.9979C127.627 58.7176 128.785 59.0775 130.385 59.0775C132.658 59.0775 134.595 58.5483 136.195 57.4899C137.837 56.4315 139.627 54.8227 141.564 52.6635H143.711C139.037 60.4958 133.248 64.4119 126.342 64.4119ZM126.469 48.1546C128.027 48.0699 129.5 47.5196 130.89 46.5035C132.321 45.4874 133.458 44.1961 134.3 42.6297C135.185 41.0632 135.627 39.4121 135.627 37.6763C135.627 35.9405 135.1 35.0726 134.048 35.0726C132.532 35.0726 131.037 36.4062 129.564 39.0734C128.132 41.7406 127.1 44.7677 126.469 48.1546Z" fill="white"/>
<path d="M148.75 64.4119C146.308 64.4119 144.392 63.7981 143.003 62.5703C141.655 61.3002 140.982 59.4162 140.982 56.9183C140.982 55.9023 141.087 54.8862 141.298 53.8701L145.845 32.2783H154.94L150.392 53.8701C150.182 54.9285 150.076 55.6906 150.076 56.1563C150.076 57.5534 150.792 58.2519 152.224 58.2519C154.161 58.2519 155.95 57.0242 157.592 54.5686C159.276 52.1131 160.624 49.1919 161.634 45.8049C162.645 42.418 163.15 39.4968 163.15 37.0412C163.066 37.2529 162.792 37.4222 162.329 37.5493C161.866 37.6339 161.466 37.6763 161.129 37.6763C160.413 37.6763 159.845 37.3376 159.424 36.6602C159.045 35.9828 158.855 35.2419 158.855 34.4375C158.855 33.4214 159.171 32.5959 159.803 31.9608C160.476 31.3258 161.466 31.0082 162.771 31.0082C164.161 31.0082 165.171 31.5374 165.803 32.5959C166.434 33.6119 166.75 34.9244 166.75 36.5332C166.75 40.3435 166.098 44.429 164.792 48.7897C163.487 53.108 161.487 56.7913 158.792 59.8396C156.098 62.8878 152.75 64.4119 148.75 64.4119Z" fill="white"/>
<path d="M176.923 64.2849C173.807 64.2849 171.344 63.4805 169.533 61.8717C167.723 60.2629 166.817 57.7227 166.817 54.2511C166.817 51.3299 167.386 48.1335 168.523 44.6618C169.659 41.1479 171.512 38.1208 174.08 35.5806C176.649 32.9981 179.933 31.7068 183.933 31.7068C188.901 31.7068 191.575 34.5645 191.954 40.28C192.88 40.0683 193.701 39.5603 194.417 38.7559C195.133 37.9091 195.807 36.9565 196.438 35.8981H198.459C197.323 38.1843 196.312 39.9836 195.428 41.2961C194.544 42.5662 193.386 43.6034 191.954 44.4078C191.701 48.3875 190.88 51.8803 189.491 54.8862C188.144 57.8921 186.375 60.2206 184.186 61.8717C181.996 63.4805 179.575 64.2849 176.923 64.2849ZM179.449 58.5695C181.007 58.5695 182.459 57.2994 183.807 54.7592C185.154 52.219 186.08 49.086 186.586 45.3604C185.575 44.9794 185.07 44.0268 185.07 42.5027C185.07 40.8515 185.659 39.7508 186.838 39.2004C186.754 37.8456 186.523 36.9142 186.144 36.4062C185.807 35.8558 185.238 35.5806 184.438 35.5806C183.049 35.5806 181.723 36.5967 180.459 38.6288C179.196 40.6187 178.165 43.053 177.365 45.9319C176.607 48.7685 176.228 51.2664 176.228 53.4255C176.228 55.4577 176.459 56.8337 176.923 57.5534C177.386 58.2308 178.228 58.5695 179.449 58.5695Z" fill="white"/>
</svg>
