<svg width="40" height="35" viewBox="0 0 40 35" fill="none" xmlns="http://www.w3.org/2000/svg">
<path d="M0 3.57144C0 1.99108 1.27679 0.714294 2.85714 0.714294H37.1429C38.7232 0.714294 40 1.99108 40 3.57144C40 5.15179 38.7232 6.42858 37.1429 6.42858H2.85714C1.27679 6.42858 0 5.15179 0 3.57144ZM0 17.8572C0 16.2768 1.27679 15 2.85714 15H37.1429C38.7232 15 40 16.2768 40 17.8572C40 19.4375 38.7232 20.7143 37.1429 20.7143H2.85714C1.27679 20.7143 0 19.4375 0 17.8572ZM40 32.1429C40 33.7232 38.7232 35 37.1429 35H2.85714C1.27679 35 0 33.7232 0 32.1429C0 30.5625 1.27679 29.2857 2.85714 29.2857H37.1429C38.7232 29.2857 40 30.5625 40 32.1429Z" fill="black"/>
</svg>
