<svg width="100" height="79" viewBox="0 0 100 79" fill="none" xmlns="http://www.w3.org/2000/svg">
<g clip-path="url(#clip0_2_179)">
<path d="M28.7879 79C28.5379 79.002 28.29 78.9544 28.0584 78.8598C27.8269 78.7653 27.6163 78.6257 27.4388 78.4492C27.2614 78.2726 27.1205 78.0626 27.0244 77.8312C26.9282 77.5998 26.8788 77.3516 26.8788 77.101V68.8971H26.6667C23.1775 68.5075 19.8689 67.1383 17.1212 64.9471L16.9545 64.8256L11.1363 70.5987C10.7759 70.9577 10.2884 71.1592 9.78029 71.1592C9.27219 71.1592 8.78471 70.9577 8.42423 70.5987C8.24785 70.4222 8.10792 70.2127 8.01244 69.982C7.91696 69.7513 7.86781 69.5039 7.86781 69.2541C7.86781 69.0043 7.91696 68.757 8.01244 68.5263C8.10792 68.2956 8.24785 68.086 8.42423 67.9096L14.2576 62.091L14.1212 61.9238C11.9328 59.1982 10.5614 55.9054 10.1667 52.4286V52.216H1.90908C1.6451 52.2396 1.3791 52.2079 1.12802 52.1228C0.876939 52.0378 0.646274 51.9012 0.450709 51.7218C0.255143 51.5425 0.0989636 51.3243 -0.00788797 51.0811C-0.11474 50.8379 -0.169922 50.5751 -0.169922 50.3093C-0.169922 50.0436 -0.11474 49.7808 -0.00788797 49.5376C0.0989636 49.2944 0.255143 49.0762 0.450709 48.8968C0.646274 48.7175 0.876939 48.5809 1.12802 48.4958C1.3791 48.4108 1.6451 48.379 1.90908 48.4027H10.1363V48.19C10.5335 44.7139 11.9046 41.4218 14.0909 38.6948L14.2273 38.5277L8.42423 32.7242C8.06709 32.3654 7.86651 31.8791 7.86651 31.3721C7.86651 30.8651 8.06709 30.3789 8.42423 30.02C8.78846 29.6682 9.27453 29.4716 9.78029 29.4716C10.286 29.4716 10.7721 29.6682 11.1363 30.02L16.9545 35.8387L17.1212 35.7019C19.8722 33.5164 23.1791 32.148 26.6667 31.7519H26.8788V23.5329C26.8788 23.0252 27.0799 22.5383 27.4379 22.1793C27.796 21.8203 28.2815 21.6187 28.7879 21.6187C29.2942 21.6187 29.7798 21.8203 30.1378 22.1793C30.4958 22.5383 30.697 23.0252 30.697 23.5329V31.7215H30.9091C34.3919 32.118 37.6939 33.4865 40.4394 35.6715L40.606 35.8083L46.4394 29.9896C46.802 29.6401 47.2849 29.4442 47.7879 29.4427C48.2914 29.4411 48.7755 29.6374 49.1363 29.9896C49.4935 30.3485 49.6941 30.8348 49.6941 31.3417C49.6941 31.8487 49.4935 32.335 49.1363 32.6938L43.3182 38.4973L43.4394 38.6644C45.6297 41.3905 47.0059 44.6824 47.4091 48.1596V48.3723H55.6363C55.9003 48.3487 56.1663 48.3804 56.4174 48.4654C56.6685 48.5505 56.8991 48.6871 57.0947 48.8664C57.2903 49.0458 57.4465 49.264 57.5533 49.5072C57.6602 49.7504 57.7153 50.0132 57.7153 50.2789C57.7153 50.5447 57.6602 50.8075 57.5533 51.0507C57.4465 51.2939 57.2903 51.5121 57.0947 51.6915C56.8991 51.8708 56.6685 52.0074 56.4174 52.0924C56.1663 52.1775 55.9003 52.2092 55.6363 52.1856H47.4394V52.3983C47.0394 55.8764 45.6628 59.1691 43.4697 61.8935L43.3485 62.0758L49.1666 67.8792C49.3449 68.0528 49.4865 68.2607 49.5828 68.4904C49.6791 68.7201 49.7282 68.967 49.7273 69.2162C49.7273 69.7238 49.5261 70.2107 49.1681 70.5697C48.8101 70.9287 48.3245 71.1304 47.8182 71.1304C47.3121 71.1296 46.8271 70.9274 46.4697 70.5683L40.606 64.7952L40.4394 64.9167C37.6977 67.1082 34.3938 68.4775 30.9091 68.8667H30.697V77.0706C30.699 77.3232 30.6511 77.5738 30.556 77.8078C30.461 78.0418 30.3207 78.2546 30.1432 78.434C29.9657 78.6133 29.7546 78.7557 29.522 78.8528C29.2893 78.95 29.0398 79 28.7879 79ZM28.7879 35.4285C25.855 35.4465 22.9932 36.3349 20.5634 37.9818C18.1336 39.6287 16.2446 41.9602 15.1346 44.6822C14.0247 47.4043 13.7436 50.3949 14.3268 53.277C14.9099 56.159 16.3312 58.8034 18.4114 60.8765C20.4916 62.9495 23.1374 64.3585 26.0152 64.9256C28.8931 65.4927 31.8739 65.1926 34.5818 64.0631C37.2898 62.9336 39.6034 61.0253 41.231 58.579C42.8586 56.1326 43.7272 53.2577 43.7273 50.3169C43.7112 46.3574 42.1292 42.566 39.3284 39.7747C36.5276 36.9835 32.7368 35.4204 28.7879 35.4285Z" fill="#616666"/>
<path d="M76.3939 47.0962C75.8902 47.0962 75.4069 46.8966 75.0493 46.5409C74.6917 46.1852 74.4888 45.7022 74.4848 45.1972V38.8468H74.2727C71.6445 38.4688 69.1565 37.4228 67.0454 35.8083L66.8787 35.6868L62.3333 40.1533C62.1555 40.3291 61.9449 40.4679 61.7135 40.5618C61.4821 40.6556 61.2344 40.7027 60.9848 40.7003C60.4819 40.6987 59.9989 40.5028 59.6363 40.1533C59.2792 39.7945 59.0786 39.3082 59.0786 38.8012C59.0786 38.2942 59.2792 37.808 59.6363 37.4491L64.1818 32.9977L64.0454 32.8306C62.4394 30.7229 61.3964 28.2391 61.0151 25.6143V25.4168H54.6969C54.4329 25.4404 54.1669 25.4087 53.9159 25.3236C53.6648 25.2386 53.4341 25.102 53.2385 24.9227C53.043 24.7433 52.8868 24.5251 52.78 24.2819C52.6731 24.0387 52.6179 23.7759 52.6179 23.5102C52.6179 23.2444 52.6731 22.9816 52.78 22.7384C52.8868 22.4952 53.043 22.277 53.2385 22.0976C53.4341 21.9183 53.6648 21.7817 53.9159 21.6967C54.1669 21.6116 54.4329 21.5799 54.6969 21.6035H61.0151V21.406C61.3964 18.7812 62.4394 16.2974 64.0454 14.1897L64.1818 14.0226L59.6363 9.57121C59.29 9.21232 59.0947 8.73362 59.0909 8.23429C59.0949 7.72924 59.2978 7.24624 59.6553 6.89053C60.0129 6.53482 60.4962 6.33523 60.9999 6.33525C61.251 6.3322 61.5001 6.38048 61.7319 6.47712C61.9637 6.57376 62.1735 6.71675 62.3484 6.89736L66.8939 11.3487L67.0605 11.2272C69.1717 9.61269 71.6597 8.5667 74.2878 8.18871H74.4999V1.89909C74.4999 1.39141 74.7011 0.904516 75.0591 0.545528C75.4171 0.186541 75.9027 -0.0151367 76.409 -0.0151367C76.9154 -0.0151367 77.4009 0.186541 77.759 0.545528C78.117 0.904516 78.3181 1.39141 78.3181 1.89909V8.2039H78.5303C81.1568 8.58774 83.6434 9.63314 85.7575 11.2424L85.9242 11.3639L90.3939 6.91256C90.6619 6.64838 91.0013 6.46869 91.37 6.39569C91.7387 6.32268 92.1207 6.35955 92.4688 6.50174C92.8168 6.64392 93.1158 6.88521 93.3286 7.1958C93.5415 7.50639 93.659 7.87269 93.6666 8.24948C93.6626 8.75621 93.4614 9.24135 93.106 9.60159L88.5606 14.0529L88.6969 14.2201C90.3029 16.3278 91.3459 18.8116 91.7272 21.4364V21.6339H98.0454C98.3094 21.6103 98.5754 21.642 98.8265 21.727C99.0775 21.8121 99.3082 21.9487 99.5038 22.128C99.6993 22.3074 99.8555 22.5256 99.9624 22.7688C100.069 23.012 100.124 23.2748 100.124 23.5405C100.124 23.8063 100.069 24.0691 99.9624 24.3123C99.8555 24.5555 99.6993 24.7737 99.5038 24.9531C99.3082 25.1324 99.0775 25.269 98.8265 25.354C98.5754 25.4391 98.3094 25.4708 98.0454 25.4472H91.7727V25.6447C91.3914 28.2695 90.3484 30.7533 88.7424 32.861L88.606 33.0281L93.1515 37.4795C93.5086 37.8384 93.7092 38.3246 93.7092 38.8316C93.7092 39.3386 93.5086 39.8248 93.1515 40.1837C92.7872 40.5356 92.3012 40.7321 91.7954 40.7321C91.2896 40.7321 90.8036 40.5356 90.4393 40.1837L85.909 35.702L85.7424 35.8235C83.6282 37.4327 81.1416 38.4781 78.5151 38.862H78.303V45.1668C78.305 45.4194 78.2571 45.67 78.162 45.904C78.067 46.138 77.9267 46.3508 77.7492 46.5302C77.5717 46.7096 77.3606 46.8519 77.128 46.9491C76.8954 47.0462 76.6459 47.0962 76.3939 47.0962ZM76.3939 11.926C74.098 11.938 71.8572 12.6316 69.9541 13.9193C68.051 15.207 66.5709 17.031 65.7006 19.1612C64.8303 21.2915 64.6088 23.6325 65.064 25.8888C65.5192 28.1452 66.6308 30.2158 68.2585 31.8393C69.8861 33.4629 71.9569 34.5667 74.2095 35.0114C76.4621 35.4561 78.7957 35.2218 80.9156 34.3381C83.0356 33.4544 84.847 31.9608 86.1213 30.0459C87.3956 28.131 88.0757 25.8806 88.0757 23.5785C88.0757 22.041 87.7734 20.5186 87.1862 19.0983C86.5989 17.6781 85.7382 16.3878 84.6533 15.3014C83.5683 14.2149 82.2804 13.3535 80.8632 12.7665C79.446 12.1796 77.9272 11.8784 76.3939 11.8804V11.926Z" fill="#616666"/>
<path d="M443.939 -66.8461H-651.515V110.144H443.939V-66.8461Z" stroke="white" stroke-miterlimit="10"/>
</g>
<defs>
<clipPath id="clip0_2_179">
<rect width="100" height="79" fill="white"/>
</clipPath>
</defs>
</svg>
