<svg width="81" height="81" viewBox="0 0 81 81" fill="none" xmlns="http://www.w3.org/2000/svg">
<g clip-path="url(#clip0_2_169)">
<path d="M43.3507 81C43.0795 81.0052 42.8169 80.9046 42.6186 80.7196C42.5121 80.6193 42.427 80.4988 42.3681 80.365C42.3092 80.2312 42.2779 80.0869 42.2759 79.9407V78.2584H38.6153V79.9251C38.6114 80.2063 38.499 80.4751 38.3016 80.6754C38.1043 80.8757 37.8371 80.992 37.5561 81H37.4626C36.0947 80.903 34.7325 80.7366 33.3814 80.5015L32.7116 80.3457C31.093 80.0245 29.4959 79.6031 27.9295 79.084C27.7916 79.0404 27.6647 78.9678 27.5572 78.8711C27.4497 78.7744 27.3642 78.6558 27.3064 78.5232C27.2448 78.3888 27.2129 78.2427 27.2129 78.0949C27.2129 77.947 27.2448 77.8009 27.3064 77.6665L27.9451 76.1088L24.4403 74.7692L23.8016 76.3269C23.7458 76.4616 23.6632 76.5835 23.5587 76.6853C23.4543 76.7871 23.3303 76.8665 23.1941 76.9188C23.07 76.935 22.9444 76.935 22.8203 76.9188C22.6588 76.9139 22.5 76.8768 22.353 76.8098C20.9374 76.1069 19.5642 75.3215 18.2407 74.4576L17.3216 73.8346C16.1727 73.0193 15.0702 72.1404 14.0193 71.2021C13.9062 71.1088 13.8143 70.9925 13.7498 70.8609C13.6854 70.7292 13.6498 70.5853 13.6455 70.4388C13.6439 70.1439 13.7554 69.8596 13.957 69.6444L15.063 68.5384L12.4616 65.8748L11.2778 67.0586C11.0892 67.2527 10.8318 67.3646 10.5613 67.3701H10.4678C10.3252 67.3606 10.1862 67.3209 10.06 67.2538C9.93385 67.1867 9.82331 67.0936 9.73567 66.9807C8.74852 65.8405 7.82795 64.6443 6.97856 63.398C6.8851 63.2734 6.80721 63.1488 6.72933 63.0242C6.65144 62.8996 6.65144 62.9151 6.63587 62.8996C5.77357 61.5912 4.9882 60.2337 4.28375 58.834C4.22591 58.6986 4.19608 58.5529 4.19608 58.4056C4.19608 58.2584 4.22591 58.1127 4.28375 57.9773C4.33605 57.8411 4.41549 57.7171 4.51725 57.6127C4.61901 57.5082 4.74096 57.4256 4.87567 57.3698L6.43337 56.7155L5.01587 53.3353L3.45817 53.974C3.32616 54.0345 3.18282 54.0664 3.0376 54.0675C2.88718 54.0681 2.73839 54.0362 2.60144 53.974C2.46998 53.9105 2.3526 53.8213 2.25627 53.7116C2.15994 53.6018 2.08663 53.4739 2.04067 53.3353C1.54445 51.8702 1.13357 50.3775 0.810097 48.8648C0.810097 48.8648 0.810097 48.7401 0.810097 48.6778V48.5376C0.428448 46.8542 0.157865 45.1474 9.71635e-05 43.4284C-0.0106316 43.2829 0.0088168 43.1367 0.0572231 42.9991C0.105629 42.8615 0.181949 42.7353 0.281398 42.6285C0.380847 42.5218 0.50128 42.4367 0.635146 42.3787C0.769012 42.3207 0.913424 42.2909 1.05933 42.2913H2.74164V38.6151H1.0749C0.927022 38.6202 0.779763 38.5937 0.642896 38.5374C0.506029 38.4812 0.382683 38.3965 0.281042 38.289C0.1794 38.1815 0.101787 38.0535 0.0533502 37.9137C0.00491361 37.7739 -0.0132388 37.6254 9.71635e-05 37.478C0.0970475 36.1101 0.263416 34.7479 0.498559 33.3969C0.498559 33.1944 0.498559 32.9919 0.607597 32.805V32.6336C0.927064 31.0197 1.34849 29.4277 1.86933 27.8671C1.91528 27.7285 1.9886 27.6006 2.08493 27.4909C2.18125 27.3811 2.29863 27.2919 2.4301 27.2284C2.57257 27.1663 2.7264 27.1345 2.88183 27.135C3.01521 27.1053 3.15345 27.1053 3.28683 27.135L4.84452 27.758L6.23087 24.4557L4.67317 23.8171C4.53846 23.7613 4.41651 23.6786 4.31475 23.5742C4.21299 23.4697 4.13355 23.3457 4.08125 23.2096C3.97276 22.9343 3.97276 22.6281 4.08125 22.3528C4.78667 20.9386 5.57198 19.5656 6.43337 18.2405L7.05644 17.3215C7.90229 16.1703 8.81239 15.0678 9.78241 14.0192C9.98374 13.7983 10.263 13.6643 10.5613 13.6453C10.8369 13.6484 11.1 13.7604 11.2934 13.9569L12.4616 15.0628L15.1253 12.4615L14.0193 11.2932C13.9117 11.194 13.8258 11.0736 13.7671 10.9396C13.7083 10.8055 13.678 10.6607 13.678 10.5144C13.678 10.368 13.7083 10.2232 13.7671 10.0892C13.8258 9.95514 13.9117 9.83472 14.0193 9.73553C15.1629 8.7476 16.3588 7.82203 17.602 6.96283L17.9447 6.72918C19.3022 5.8312 20.7118 5.01457 22.1661 4.2836C22.3148 4.20423 22.4804 4.1615 22.6489 4.15899C22.7678 4.14276 22.8883 4.14276 23.0072 4.15899C23.1453 4.21108 23.2716 4.29029 23.3786 4.39195C23.4856 4.49361 23.5712 4.61566 23.6303 4.75091L24.2689 6.3086L27.6491 4.8911L27.0105 3.33341C26.9489 3.19901 26.917 3.0529 26.917 2.90505C26.917 2.7572 26.9489 2.61108 27.0105 2.47668C27.0682 2.34233 27.1534 2.22159 27.2608 2.12231C27.3681 2.02302 27.4951 1.94739 27.6336 1.90033C29.107 1.43955 30.6047 1.05994 32.1197 0.763218H32.1976H32.4313C34.1213 0.398697 35.8331 0.143743 37.5561 -5.0955e-05H37.6339C37.7661 -0.00399782 37.8977 0.0188043 38.0208 0.0669864C38.144 0.115168 38.2561 0.187737 38.3505 0.280334C38.4583 0.379409 38.5445 0.499776 38.6035 0.633833C38.6625 0.767889 38.693 0.912721 38.6932 1.05918V2.74149H42.3693V1.07476C42.371 0.782085 42.4886 0.502016 42.6964 0.295911C42.8932 0.106577 43.1555 0.000546858 43.4286 -5.0955e-05H43.5064C44.8746 0.0950354 46.2368 0.261415 47.5876 0.498411L48.2886 0.65418C49.902 0.975446 51.494 1.39684 53.0551 1.91591C53.1949 1.96067 53.3239 2.034 53.4338 2.13125C53.5438 2.2285 53.6324 2.34754 53.6939 2.48082C53.7554 2.61411 53.7885 2.75872 53.7912 2.90549C53.7938 3.05226 53.766 3.19798 53.7093 3.33341L53.0863 4.8911L56.5288 6.23072L57.1674 4.67303C57.2189 4.53576 57.3001 4.41155 57.4051 4.30923C57.5101 4.20692 57.6363 4.12903 57.7749 4.0811C57.8939 4.03303 58.0205 4.00666 58.1488 4.00322C58.3153 4.00773 58.4793 4.04477 58.6316 4.11226C60.0395 4.82032 61.4071 5.60555 62.7284 6.46437L63.2268 6.80707L63.663 7.08745C64.815 7.93296 65.9225 8.83764 66.9809 9.79783C67.0919 9.89184 67.1814 10.0087 67.2432 10.1404C67.3051 10.2721 67.3378 10.4156 67.3391 10.5611C67.3471 10.7081 67.3234 10.8551 67.2697 10.9922C67.2159 11.1292 67.1334 11.2531 67.0276 11.3555L65.8593 12.5394L68.5386 15.1251L69.6913 14.0192C69.8865 13.8255 70.1485 13.714 70.4234 13.7076C70.5659 13.7131 70.7057 13.7477 70.8343 13.8093C70.9629 13.871 71.0775 13.9583 71.1711 14.0659C72.1501 15.2127 73.0703 16.4085 73.9282 17.6486L74.1774 18.0224L74.2709 18.1782C75.1322 19.4764 75.9176 20.8235 76.623 22.2126C76.7315 22.4879 76.7315 22.7941 76.623 23.0694C76.5732 23.2069 76.4947 23.3323 76.3926 23.437C76.2905 23.5418 76.1673 23.6235 76.0311 23.6769L74.4734 24.3155L75.8909 27.7113L77.4486 27.0571C77.5825 27.0335 77.7196 27.0335 77.8536 27.0571C78.004 27.0564 78.1528 27.0883 78.2897 27.1505C78.4246 27.2074 78.5458 27.2924 78.6452 27.3998C78.7446 27.5073 78.8199 27.6347 78.8661 27.7736C79.3511 29.2474 79.7618 30.7447 80.0966 32.2598C80.1051 32.353 80.1051 32.4469 80.0966 32.5401C80.5016 34.1339 80.8034 35.752 81.0001 37.3846C81.0489 37.543 81.0597 37.7107 81.0319 37.8741C81.004 38.0375 80.9382 38.1921 80.8397 38.3254C80.7412 38.4588 80.6128 38.5671 80.4648 38.6418C80.3168 38.7165 80.1534 38.7554 79.9876 38.7553H78.243V42.3692H79.9097C80.0562 42.3694 80.201 42.3999 80.3351 42.4589C80.4691 42.5179 80.5895 42.604 80.6886 42.7119C80.7868 42.8214 80.8623 42.9495 80.9104 43.0886C80.9586 43.2277 80.9785 43.375 80.9689 43.5219C80.8726 44.8907 80.701 46.2531 80.4549 47.603L80.3147 48.3663C79.9932 49.9782 79.5771 51.5698 79.0686 53.1328C79.02 53.2724 78.944 53.4008 78.845 53.5105C78.746 53.6202 78.6261 53.7089 78.4922 53.7715C78.3553 53.8337 78.2065 53.8656 78.0561 53.865C77.9228 53.8956 77.7843 53.8956 77.6511 53.865L76.0934 53.2419L74.7693 56.5598L76.327 57.1828C76.4617 57.2387 76.5837 57.3213 76.6854 57.4257C76.7872 57.5302 76.8667 57.6542 76.9189 57.7903C76.9806 57.9247 77.0124 58.0709 77.0124 58.2187C77.0124 58.3666 76.9806 58.5127 76.9189 58.6471C76.2317 60.0367 75.4619 61.3839 74.6136 62.6815L74.2241 63.2734C73.3278 64.5908 72.3551 65.8547 71.3112 67.0586C71.2155 67.1688 71.0986 67.2587 70.9675 67.323C70.8364 67.3872 70.6938 67.4244 70.548 67.4325C70.2724 67.4294 70.0092 67.3174 69.8159 67.1209L68.632 65.9371L65.8593 68.5384L67.0276 69.7223C67.1334 69.8247 67.2159 69.9486 67.2697 70.0856C67.3234 70.2227 67.3471 70.3697 67.3391 70.5167C67.334 70.6615 67.2995 70.8037 67.238 70.9349C67.1764 71.0661 67.089 71.1834 66.9809 71.28C65.8475 72.2574 64.6619 73.1726 63.4293 74.0215L63.0399 74.2863H62.8997C61.5952 75.1595 60.2374 75.9503 58.8341 76.654C58.6848 76.7318 58.5196 76.7744 58.3512 76.7786C58.2276 76.8005 58.1011 76.8005 57.9774 76.7786C57.8423 76.7289 57.7187 76.6521 57.6143 76.553C57.5098 76.4539 57.4267 76.3346 57.3699 76.2023L56.7157 74.6446L53.3355 76.0621L53.9897 77.6198C54.0476 77.7552 54.0774 77.9009 54.0774 78.0481C54.0774 78.1954 54.0476 78.3411 53.9897 78.4765C53.9272 78.6104 53.8384 78.7303 53.7287 78.8293C53.619 78.9283 53.4906 79.0043 53.3511 79.0528C51.8848 79.5412 50.3923 79.9469 48.8805 80.2678H48.8026H48.5534L47.6966 80.4392C46.2896 80.6913 44.8701 80.8681 43.4441 80.9688L43.3507 81ZM43.3507 76.1244C43.4911 76.1244 43.6301 76.1523 43.7597 76.2065C43.8892 76.2607 44.0067 76.3401 44.1052 76.4401C44.2038 76.5401 44.2815 76.6587 44.3338 76.7891C44.3861 76.9194 44.412 77.0588 44.4099 77.1992V78.7569C45.3757 78.6634 46.357 78.5232 47.3072 78.3519L48.1328 78.1961H48.3664H48.5845C49.5347 77.978 50.5628 77.7132 51.5753 77.4017L50.9678 75.953C50.9143 75.8242 50.8867 75.6861 50.8868 75.5466C50.8868 75.4071 50.9144 75.2689 50.9679 75.1401C51.0215 75.0113 51.0999 74.8943 51.1988 74.7959C51.2977 74.6975 51.4151 74.6196 51.5441 74.5667L56.887 72.3236C57.0204 72.294 57.1586 72.294 57.292 72.3236C57.4253 72.293 57.5638 72.293 57.697 72.3236C57.8268 72.3761 57.9448 72.4542 58.0438 72.5532C58.1428 72.6522 58.2209 72.7701 58.2734 72.9L58.8809 74.3486C59.8778 73.8034 60.8591 73.2271 61.7937 72.604L62.2299 72.308C63.0866 71.7161 63.9278 71.093 64.7066 70.4544L63.6007 69.3328C63.5008 69.2358 63.4217 69.1195 63.3682 68.991C63.3146 68.8624 63.2877 68.7244 63.2891 68.5851C63.2886 68.446 63.3159 68.3083 63.3694 68.1798C63.4229 68.0514 63.5015 67.935 63.6007 67.8375L67.6974 63.7407C67.7978 63.6352 67.9186 63.5511 68.0525 63.4937C68.1864 63.4362 68.3306 63.4066 68.4762 63.4066C68.6219 63.4066 68.7661 63.4362 68.9 63.4937C69.0339 63.5511 69.1547 63.6352 69.2551 63.7407L70.3611 64.8467C71.0932 63.9588 71.763 63.0553 72.3861 62.1363L72.7599 61.5755C73.3518 60.6721 73.897 59.7375 74.4111 58.7717L72.9624 58.1798C72.8333 58.1268 72.716 58.0489 72.6171 57.9505C72.5182 57.8521 72.4397 57.7352 72.3862 57.6063C72.3326 57.4775 72.3051 57.3394 72.305 57.1999C72.305 57.0604 72.3326 56.9222 72.3861 56.7934L74.5357 51.4038C74.616 51.2098 74.7521 51.044 74.9269 50.9275C75.1016 50.811 75.307 50.7491 75.517 50.7496C75.6556 50.7513 75.7927 50.7777 75.922 50.8275L77.3863 51.4194C77.7134 50.2978 77.9938 49.1451 78.2274 48.008L78.3676 47.2759C78.5234 46.388 78.648 45.469 78.7414 44.55H77.1837C77.0441 44.5521 76.9054 44.5261 76.7759 44.4736C76.6465 44.4211 76.5289 44.3432 76.4301 44.2444C76.3313 44.1456 76.2534 44.028 76.2009 43.8985C76.1484 43.7691 76.1224 43.6304 76.1245 43.4907V37.6494C76.1225 37.509 76.1483 37.3696 76.2006 37.2392C76.2529 37.1089 76.3306 36.9903 76.4292 36.8903C76.5278 36.7903 76.6452 36.7109 76.7748 36.6567C76.9043 36.6025 77.0433 36.5746 77.1837 36.5746H78.7414C78.6179 35.33 78.4307 34.0927 78.1807 32.8673C78.1913 32.7793 78.1913 32.6904 78.1807 32.6025C78.1736 32.5351 78.1736 32.4673 78.1807 32.3999C77.9626 31.4342 77.6822 30.4061 77.3863 29.4092L75.9532 30.0167C75.8212 30.0772 75.6778 30.109 75.5326 30.1101C75.3985 30.1322 75.2617 30.1322 75.1276 30.1101C74.8682 29.9998 74.6616 29.7932 74.5513 29.5338L72.3082 24.1753C72.2547 24.0465 72.2271 23.9084 72.2271 23.7689C72.2272 23.6294 72.2547 23.4912 72.3083 23.3624C72.3619 23.2336 72.4403 23.1166 72.5392 23.0182C72.6381 22.9198 72.7554 22.8419 72.8845 22.789L74.3332 22.1815C73.8036 21.1846 73.2116 20.2032 72.5886 19.2686L72.3393 18.9103C71.7318 18.0224 71.0932 17.1657 70.4389 16.3557L69.333 17.4617C69.2326 17.5673 69.1118 17.6513 68.9779 17.7087C68.844 17.7662 68.6998 17.7958 68.5541 17.7958C68.4084 17.7958 68.2643 17.7662 68.1304 17.7087C67.9965 17.6513 67.8757 17.5673 67.7753 17.4617L63.663 13.2871C63.5574 13.1867 63.4734 13.0659 63.4159 12.932C63.3585 12.7981 63.3289 12.6539 63.3289 12.5082C63.3289 12.3625 63.3585 12.2184 63.4159 12.0845C63.4734 11.9506 63.5574 11.8298 63.663 11.7294L64.7845 10.6234C64.0264 10.0003 63.2476 9.40841 62.448 8.84764L62.0586 8.58284L61.5757 8.25572C60.6411 7.6638 59.6753 7.08745 58.7095 6.57341L58.1176 8.02207C58.0329 8.21614 57.8935 8.38135 57.7165 8.49753C57.5395 8.61371 57.3324 8.67582 57.1207 8.6763C56.9865 8.69707 56.8499 8.69707 56.7157 8.6763L51.4039 6.4488C51.2735 6.3976 51.1547 6.32068 51.0547 6.2226C50.9546 6.12452 50.8754 6.00731 50.8216 5.87793C50.7678 5.74856 50.7406 5.60968 50.7416 5.46958C50.7427 5.32947 50.7719 5.19101 50.8276 5.06245L51.4039 3.59822C50.2824 3.2711 49.1297 2.97514 47.977 2.75706L47.2605 2.61687C46.357 2.4611 45.4536 2.33649 44.5345 2.24303V3.80072C44.5345 4.08578 44.4213 4.35916 44.2197 4.56072C44.0182 4.76229 43.7448 4.87553 43.4597 4.87553H37.6339C37.3516 4.87143 37.0822 4.75639 36.884 4.55527C36.6858 4.35414 36.5747 4.0831 36.5747 3.80072V2.24303C35.3249 2.36544 34.0823 2.55262 32.8518 2.8038H32.5403C31.5122 3.02187 30.453 3.30226 29.4249 3.6138L30.0324 5.06245C30.0864 5.19065 30.1142 5.32835 30.1142 5.46745C30.1142 5.60655 30.0864 5.74425 30.0324 5.87245C29.9833 6.00172 29.9081 6.11956 29.8117 6.21868C29.7152 6.31781 29.5995 6.39612 29.4716 6.4488L24.0976 8.7386C23.8376 8.84261 23.5476 8.84261 23.2876 8.7386C23.1578 8.68611 23.0398 8.60804 22.9408 8.50902C22.8418 8.41001 22.7637 8.29208 22.7113 8.16226L22.1038 6.7136C21.0912 7.2588 20.1099 7.85072 19.1909 8.45822L19.0818 8.5361L18.8326 8.70745C17.9603 9.29937 17.1191 9.93803 16.3091 10.5923L17.4151 11.6982C17.5207 11.7986 17.6047 11.9194 17.6622 12.0533C17.7196 12.1872 17.7492 12.3314 17.7492 12.4771C17.7492 12.6228 17.7196 12.7669 17.6622 12.9008C17.6047 13.0347 17.5207 13.1555 17.4151 13.2559L13.2872 17.3215C13.1868 17.4271 13.066 17.5111 12.9321 17.5686C12.7982 17.626 12.6541 17.6556 12.5084 17.6556C12.3627 17.6556 12.2185 17.626 12.0846 17.5686C11.9507 17.5111 11.8299 17.4271 11.7295 17.3215L10.6236 16.2155C10.0005 16.9788 9.40856 17.7732 8.86337 18.5365L8.25587 19.4244C7.66394 20.3434 7.0876 21.3092 6.57356 22.2905L8.02221 22.8825C8.15129 22.9354 8.26864 23.0133 8.36752 23.1117C8.4664 23.2101 8.54488 23.3271 8.59843 23.4559C8.65198 23.5847 8.67956 23.7228 8.67958 23.8623C8.67961 24.0018 8.65207 24.14 8.59856 24.2688L6.44894 29.5961C6.3729 29.7943 6.23823 29.9646 6.06289 30.0843C5.88755 30.204 5.67988 30.2673 5.4676 30.2659C5.32905 30.2642 5.19191 30.2378 5.0626 30.188L3.59837 29.5961C3.27125 30.7021 2.99087 31.8548 2.75721 33.0075V33.1944C2.75721 33.3657 2.67933 33.5526 2.64817 33.7396C2.4924 34.643 2.36779 35.5465 2.27433 36.4655H3.83202C4.11295 36.4655 4.38237 36.5771 4.58101 36.7758C4.77965 36.9744 4.89125 37.2438 4.89125 37.5248V43.3194C4.89128 43.6018 4.78018 43.8728 4.58197 44.0739C4.38377 44.275 4.11437 44.3901 3.83202 44.3942H2.27433C2.39894 45.6403 2.60144 46.8865 2.8351 48.1015V48.304C2.8351 48.4442 2.8351 48.5221 2.8351 48.5688C3.05317 49.5346 3.33356 50.5782 3.62952 51.5596L5.07817 50.9521C5.20408 50.8899 5.34274 50.8579 5.48317 50.8586C5.69318 50.8581 5.89859 50.92 6.07333 51.0365C6.24806 51.153 6.38423 51.3188 6.46452 51.5128L8.7076 56.8713C8.76111 57.0001 8.78864 57.1383 8.78862 57.2778C8.7886 57.4173 8.76102 57.5554 8.70747 57.6842C8.65392 57.813 8.57544 57.93 8.47656 58.0284C8.37768 58.1268 8.26033 58.2047 8.13125 58.2576L6.6826 58.8652C7.22779 59.8776 7.81971 60.859 8.42721 61.778L8.69202 62.1675C9.28394 63.0242 9.9226 63.8653 10.5768 64.6909L11.6984 63.585C11.7976 63.4773 11.918 63.3914 12.052 63.3327C12.1861 63.274 12.3309 63.2436 12.4772 63.2436C12.6236 63.2436 12.7683 63.274 12.9024 63.3327C13.0364 63.3914 13.1569 63.4773 13.2561 63.585L17.3528 67.6817C17.4604 67.7809 17.5463 67.9013 17.605 68.0354C17.6638 68.1694 17.6941 68.3142 17.6941 68.4605C17.6941 68.6069 17.6638 68.7517 17.605 68.8857C17.5463 69.0198 17.4604 69.1402 17.3528 69.2394L16.2468 70.3453C16.9945 70.9684 17.8045 71.5603 18.5678 72.1211L19.4557 72.713C20.3903 73.3205 21.3561 73.8813 22.3218 74.4109L22.9137 72.9467C22.994 72.7526 23.1302 72.5868 23.3049 72.4704C23.4797 72.3539 23.6851 72.2919 23.8951 72.2925C24.0336 72.2942 24.1708 72.3206 24.3001 72.3703L29.5963 74.5511C29.8571 74.6583 30.0653 74.8638 30.176 75.1231C30.2867 75.3825 30.2911 75.6749 30.1882 75.9375L29.5807 77.4017C30.7022 77.7288 31.8549 78.0248 33.0076 78.2428L33.7397 78.383C34.6328 78.5388 35.5363 78.6634 36.4501 78.7569V77.1992C36.4501 76.9141 36.5633 76.6408 36.7649 76.4392C36.9665 76.2376 37.2398 76.1244 37.5249 76.1244H43.3507ZM40.4066 63.3825C35.858 63.3855 31.4107 62.0393 27.6274 59.5142C23.844 56.989 20.8947 53.3984 19.1526 49.1966C17.4105 44.9948 16.9539 40.3707 17.8405 35.9093C18.7272 31.4479 20.9172 27.3498 24.1336 24.1334C27.35 20.9171 31.4481 18.727 35.9095 17.8404C40.3708 16.9538 44.9949 17.4104 49.1967 19.1525C53.3985 20.8946 56.9892 23.8439 59.5143 27.6272C62.0395 31.4105 63.3857 35.8579 63.3826 40.4065C63.3744 46.4976 60.951 52.3368 56.644 56.6438C52.3369 60.9509 46.4977 63.3742 40.4066 63.3825ZM40.4066 19.7671C36.3195 19.764 32.3233 20.9736 28.9239 23.2427C25.5244 25.5118 22.8746 28.7384 21.3098 32.5142C19.745 36.2899 19.3356 40.445 20.1333 44.4536C20.9311 48.4621 22.9002 52.1439 25.7913 55.0329C28.6825 57.9218 32.3657 59.8881 36.3749 60.6828C40.384 61.4776 44.5388 61.065 48.3134 59.4973C52.088 57.9297 55.3126 55.2774 57.5791 51.8763C59.8457 48.4752 61.0522 44.4781 61.0461 40.3909C61.0419 34.9183 58.8661 29.6709 54.9964 25.8012C51.1266 21.9314 45.8793 19.7556 40.4066 19.7515V19.7671ZM40.4066 57.9305C35.8305 57.9502 31.4312 56.1648 28.1632 52.9615C28.1248 52.9457 28.0921 52.9185 28.0697 52.8836C26.4292 51.2583 25.1264 49.3245 24.2363 47.1936C23.3462 45.0627 22.8865 42.7768 22.8836 40.4675C22.8807 38.1582 23.3347 35.8711 24.2194 33.738C25.1041 31.6048 26.4021 29.6678 28.0386 28.0384L28.132 27.9605C31.4182 24.7243 35.8495 22.9168 40.4616 22.9314C45.0737 22.946 49.4935 24.7815 52.7591 28.0384L52.837 28.1319C56.071 31.3847 57.8966 35.7785 57.9199 40.3654C57.9432 44.9522 56.1624 49.3644 52.9616 52.65C52.9459 52.6884 52.9187 52.721 52.8838 52.7434C51.2548 54.395 49.3115 55.7035 47.1685 56.5917C45.0255 57.4799 42.7263 57.9299 40.4066 57.915V57.9305ZM30.3751 52.0269C32.8852 54.1923 36.0256 55.4922 39.3318 55.7342V43.0546L30.3751 52.0269ZM41.4659 55.7342C44.8199 55.4956 48.0038 54.1663 50.5316 51.949L41.4659 42.8832V55.7342ZM25.0789 41.4657C25.3209 44.819 26.6498 48.0018 28.8641 50.5315L37.9143 41.4657H25.0789ZM52.027 50.438C54.1936 47.9226 55.4934 44.7768 55.7343 41.4657H43.0547L52.027 50.438ZM55.7343 39.3317C55.4956 36.02 54.1955 32.8736 52.027 30.3594L43.0547 39.3317H55.7343ZM37.9143 39.3317L28.8486 30.2659C26.6476 32.8025 25.3254 35.9824 25.0789 39.3317H37.9143ZM41.4659 37.9142L50.5316 28.8484C48.0038 26.6311 44.8199 25.3018 41.4659 25.0632V37.9142ZM39.3318 37.7428V25.0632C36.0249 25.3019 32.8834 26.6022 30.3751 28.7705L39.3318 37.7428Z" fill="#616666"/>
<path d="M922.154 -68.5385H-204.058V112.933H922.154V-68.5385Z" stroke="white" stroke-miterlimit="10"/>
</g>
<defs>
<clipPath id="clip0_2_169">
<rect width="81" height="81" fill="white"/>
</clipPath>
</defs>
</svg>
