<svg width="106" height="79" viewBox="0 0 106 79" fill="none" xmlns="http://www.w3.org/2000/svg">
<g clip-path="url(#clip0_2_156)">
<path d="M90.1455 69.596C88.857 69.599 87.5966 69.2184 86.5238 68.5024C85.451 67.7865 84.6141 66.7672 84.1189 65.5738C83.6238 64.3804 83.4926 63.0664 83.7422 61.7982C83.9917 60.53 84.6107 59.3645 85.5207 58.4494C86.4307 57.5343 87.5909 56.9106 88.8544 56.6573C90.1179 56.404 91.4279 56.5325 92.6186 57.0265C93.8093 57.5205 94.8272 58.3577 95.5433 59.4324C96.2595 60.507 96.6418 61.7706 96.6418 63.0633C96.6418 64.7933 95.9578 66.4526 94.74 67.6773C93.5221 68.9019 91.8698 69.592 90.1455 69.596ZM90.1455 59.0829C89.3608 59.0829 88.5937 59.3164 87.9413 59.7538C87.2888 60.1911 86.7803 60.8128 86.48 61.5401C86.1798 62.2674 86.1012 63.0677 86.2543 63.8399C86.4074 64.612 86.7852 65.3212 87.3401 65.8779C87.8949 66.4345 88.6019 66.8136 89.3715 66.9672C90.1411 67.1208 90.9388 67.042 91.6637 66.7407C92.3887 66.4394 93.0083 65.9293 93.4443 65.2747C93.8802 64.6201 94.1129 63.8506 94.1129 63.0633C94.1149 62.54 94.0137 62.0215 93.815 61.5377C93.6163 61.0539 93.3241 60.6143 92.9553 60.2443C92.5865 59.8743 92.1484 59.5812 91.6661 59.3818C91.1839 59.1825 90.667 59.0809 90.1455 59.0829Z" fill="#616666"/>
<path d="M90.1453 79C86.218 79.0045 82.4294 77.5436 79.5159 74.9015C76.6025 72.2593 74.7725 68.6246 74.3816 64.704V64.3394H46.761L46.655 64.5825C45.1839 67.8199 43.0277 70.6971 40.3363 73.0141C37.6449 75.3311 34.4829 77.0323 31.07 77.9995C27.6571 78.9667 24.0752 79.1767 20.5733 78.6149C17.0713 78.053 13.7334 76.7328 10.7913 74.7461C7.84929 72.7593 5.37377 70.1536 3.53683 67.1101C1.69988 64.0666 0.545576 60.6582 0.154131 57.1219C-0.237315 53.5857 0.143492 50.0063 1.27008 46.6326C2.39668 43.2589 4.24203 40.1717 6.67789 37.5858L6.79903 37.4794V2.53712H2.64989C2.3384 2.50286 2.05046 2.35446 1.8413 2.12036C1.63214 1.88626 1.51647 1.58294 1.51647 1.26856C1.51647 0.954174 1.63214 0.650853 1.8413 0.416753C2.05046 0.182654 2.3384 0.034251 2.64989 0L60.0868 0C60.4229 0.00394464 60.7441 0.139663 60.9818 0.378138C61.2195 0.616614 61.3548 0.938922 61.3587 1.27615C61.3548 1.61339 61.2195 1.93569 60.9818 2.17417C60.7441 2.41265 60.4229 2.54836 60.0868 2.55231H56.6645L70.5656 32.7394H70.823C76.2392 32.9117 81.6186 33.6965 86.8593 35.079L87.359 35.2006V26.3283C87.359 24.3381 88.4947 20.5552 92.2805 20.5552C92.5958 20.5897 92.8874 20.7398 93.0992 20.9767C93.3111 21.2136 93.4282 21.5207 93.4282 21.8389C93.4282 22.1572 93.3111 22.4643 93.0992 22.7012C92.8874 22.9381 92.5958 23.0882 92.2805 23.1227C90.4633 23.1227 89.9333 25.1585 89.903 26.3587V35.8994L90.1908 35.9754C95.3687 37.4562 100.43 39.3199 105.334 41.551C105.55 41.656 105.733 41.8199 105.862 42.024C105.99 42.2281 106.059 42.4642 106.06 42.7056V63.0633C106.058 65.1581 105.645 67.232 104.844 69.1667C104.043 71.1013 102.871 72.8587 101.393 74.3385C99.9149 75.8184 98.161 76.9917 96.2311 77.7915C94.3013 78.5914 92.2333 79.002 90.1453 79ZM90.1453 49.6788C87.5055 49.6728 84.9232 50.4527 82.7253 51.9197C80.5274 53.3868 78.8128 55.475 77.7984 57.9202C76.784 60.3653 76.5155 63.0574 77.0268 65.6558C77.5382 68.2541 78.8064 70.6418 80.6709 72.5167C82.5355 74.3916 84.9125 75.6693 87.5012 76.1883C90.0899 76.7072 92.7738 76.4439 95.2133 75.4317C97.6528 74.4196 99.7382 72.7041 101.205 70.5024C102.673 68.3007 103.456 65.7118 103.456 63.0633C103.456 59.5188 102.055 56.119 99.5592 53.6098C97.0638 51.1006 93.6783 49.6869 90.1453 49.6788ZM24.4253 32.4356C20.083 32.4236 15.8348 33.7044 12.2185 36.116C8.60223 38.5275 5.78045 41.9614 4.11042 45.9828C2.44039 50.0042 1.99721 54.4323 2.837 58.7065C3.67678 62.9807 5.76176 66.9089 8.82798 69.9936C11.8942 73.0784 15.8038 75.181 20.0617 76.0354C24.3197 76.8897 28.7346 76.4573 32.7475 74.7929C36.7604 73.1286 40.1909 70.3071 42.6046 66.6857C45.0183 63.0642 46.3067 58.8057 46.3067 54.4492C46.3108 48.6201 44.0086 43.0277 39.9059 38.9002C35.8032 34.7728 30.2354 32.4477 24.4253 32.4356ZM40.5222 35.9906C44.0174 39.0632 46.5664 43.0724 47.87 47.5475C49.1736 52.0227 49.1776 56.778 47.8816 61.2554L47.7302 61.7871H74.3362V61.4225C74.6574 58.2526 75.9209 55.2527 77.9629 52.8123C80.0049 50.372 82.7309 48.6038 85.7871 47.7373C88.8433 46.8709 92.0885 46.9461 95.1016 47.9534C98.1146 48.9606 100.756 50.8533 102.684 53.3858L103.41 54.3429V43.526L103.168 43.4196C98.8525 41.5054 83.6945 35.2765 69.7176 35.2765C69.4728 35.2765 69.2331 35.2065 69.0266 35.0747C68.82 34.9428 68.6553 34.7546 68.5516 34.5321L53.8176 2.62827H9.32789V35.1398L9.97903 34.6537C11.022 33.8889 12.1204 33.2034 13.265 32.6027L13.4922 32.4963V7.42904C13.4922 7.0932 13.6241 6.77088 13.8594 6.53199C14.0946 6.2931 14.4143 6.15688 14.749 6.15289H49.5776C49.8202 6.15393 50.0575 6.22457 50.2614 6.35647C50.4653 6.48837 50.6274 6.67603 50.7285 6.89731L62.9033 33.4231C63.004 33.6097 63.0568 33.8186 63.0568 34.0308C63.0568 34.243 63.004 34.4519 62.9033 34.6385C62.7895 34.8211 62.6309 34.9715 62.4427 35.0752C62.2545 35.179 62.0429 35.2326 61.8282 35.231H39.7045L40.5222 35.9906ZM24.4253 29.9137C28.3602 29.9195 32.2356 30.8785 35.7219 32.709H35.8127H59.7687L48.6993 8.70519H16.021V31.3873L16.5662 31.1898C19.0964 30.3236 21.7518 29.8821 24.4253 29.8833V29.9137Z" fill="#616666"/>
<path d="M24.4255 65.7067C22.2013 65.7127 20.0253 65.0563 18.1733 63.8207C16.3212 62.585 14.8764 60.8257 14.0217 58.7655C13.1671 56.7053 12.9412 54.437 13.3725 52.2479C13.8038 50.0588 14.8731 48.0474 16.4448 46.4685C18.0165 44.8895 20.0199 43.8141 22.2013 43.3784C24.3827 42.9426 26.6439 43.1663 28.6985 44.0209C30.7531 44.8755 32.5087 46.3227 33.7428 48.1792C34.977 50.0356 35.6342 52.2178 35.6312 54.4492C35.6312 57.4323 34.4511 60.2934 32.35 62.4041C30.249 64.5149 27.3988 65.7027 24.4255 65.7067ZM24.4255 45.7288C22.7051 45.7228 21.0216 46.2292 19.5882 47.1837C18.1549 48.1382 17.0361 49.4981 16.3735 51.091C15.711 52.6839 15.5346 54.4382 15.8665 56.1318C16.1985 57.8254 17.0239 59.382 18.2383 60.6046C19.4527 61.8273 21.0014 62.6608 22.6883 62.9998C24.3752 63.3387 26.1244 63.1678 27.7144 62.5087C29.3044 61.8496 30.6637 60.7319 31.6202 59.2972C32.5766 57.8624 33.0872 56.1752 33.0872 54.4492C33.0872 52.1417 32.1756 49.9282 30.5521 48.2937C28.9285 46.6592 26.7255 45.7369 24.4255 45.7288Z" fill="#616666"/>
<path d="M1061.51 -66.8461H-33.3142V110.144H1061.51V-66.8461Z" stroke="white" stroke-miterlimit="10"/>
</g>
<defs>
<clipPath id="clip0_2_156">
<rect width="106" height="79" fill="white"/>
</clipPath>
</defs>
</svg>
