<svg width="30" height="30" viewBox="0 0 30 30" fill="none" xmlns="http://www.w3.org/2000/svg">
<path d="M26.8842 0.23584H4.03585C2.31573 0.23584 0.920166 1.63141 0.920166 3.35153V26.1999C0.920166 27.92 2.31573 29.3156 4.03585 29.3156H26.8842C28.6044 29.3156 29.9999 27.92 29.9999 26.1999V3.35153C29.9999 1.63141 28.6044 0.23584 26.8842 0.23584ZM23.7101 10.5436C23.7231 10.7253 23.7231 10.9136 23.7231 11.0953C23.7231 16.723 19.439 23.2075 11.6109 23.2075C9.19621 23.2075 6.95681 22.5065 5.07442 21.2992C5.41844 21.3381 5.74948 21.3511 6.1 21.3511C8.09274 21.3511 9.92321 20.6761 11.3837 19.5336C9.51427 19.4947 7.94345 18.2679 7.40469 16.5802C8.06028 16.6776 8.65097 16.6776 9.32603 16.5023C7.37873 16.1064 5.91825 14.3927 5.91825 12.3221V12.2702C6.48297 12.5882 7.14505 12.783 7.83959 12.8089C7.25568 12.4205 6.777 11.8936 6.44627 11.2752C6.11555 10.6568 5.94306 9.96614 5.94421 9.26484C5.94421 8.47294 6.15193 7.74595 6.52191 7.11632C8.61851 9.69974 11.7667 11.3874 15.2978 11.5692C14.6941 8.68065 16.8556 6.3374 19.452 6.3374C20.6788 6.3374 21.7823 6.85019 22.5612 7.68104C23.5219 7.49929 24.4436 7.14228 25.2615 6.65545C24.9434 7.64209 24.2748 8.47294 23.3921 8.99871C24.2489 8.90784 25.0797 8.66767 25.8457 8.33663C25.268 9.18695 24.541 9.93991 23.7101 10.5436Z" fill="#EC6608"/>
</svg>
