<svg width="35" height="36" viewBox="0 0 35 36" fill="none" xmlns="http://www.w3.org/2000/svg">
<path d="M29.6674 5.58594C26.4039 2.30469 22.0578 0.5 17.439 0.5C7.90558 0.5 0.147986 8.28125 0.147986 17.8438C0.147986 20.8984 0.942439 23.8828 2.45346 26.5156L0 35.5L9.16736 33.0859C11.6909 34.4688 14.5338 35.1953 17.4312 35.1953H17.439C26.9647 35.1953 34.8936 27.4141 34.8936 17.8516C34.8936 13.2188 32.9309 8.86719 29.6674 5.58594ZM17.439 32.2734C14.8532 32.2734 12.3218 31.5781 10.1176 30.2656L9.59575 29.9531L4.15919 31.3828L5.6079 26.0625L5.2652 25.5156C3.82428 23.2188 3.06877 20.5703 3.06877 17.8438C3.06877 9.89844 9.51786 3.42969 17.4468 3.42969C21.2867 3.42969 24.8929 4.92969 27.6033 7.65625C30.3138 10.3828 31.9806 14 31.9728 17.8516C31.9728 25.8047 25.3602 32.2734 17.439 32.2734ZM25.3212 21.4766C24.8929 21.2578 22.7665 20.2109 22.3693 20.0703C21.9721 19.9219 21.6839 19.8516 21.3957 20.2891C21.1075 20.7266 20.2819 21.6953 20.0249 21.9922C19.7756 22.2812 19.5186 22.3203 19.0902 22.1016C16.5511 20.8281 14.8843 19.8281 13.2097 16.9453C12.7658 16.1797 13.6537 16.2344 14.4793 14.5781C14.6195 14.2891 14.5494 14.0391 14.4403 13.8203C14.3313 13.6016 13.4668 11.4688 13.1085 10.6016C12.758 9.75781 12.3997 9.875 12.1349 9.85938C11.8856 9.84375 11.5975 9.84375 11.3093 9.84375C11.0211 9.84375 10.5538 9.95312 10.1565 10.3828C9.75931 10.8203 8.64552 11.8672 8.64552 14C8.64552 16.1328 10.1955 18.1953 10.4058 18.4844C10.6239 18.7734 13.4512 23.1484 17.7895 25.0312C20.5312 26.2188 21.606 26.3203 22.9768 26.1172C23.8102 25.9922 25.5315 25.0703 25.8898 24.0547C26.2481 23.0391 26.2481 22.1719 26.1391 21.9922C26.0378 21.7969 25.7496 21.6875 25.3212 21.4766Z" fill="white"/>
</svg>
