<svg width="36" height="26" viewBox="0 0 36 26" fill="none" xmlns="http://www.w3.org/2000/svg">
<path d="M34.8966 4.10508C34.4889 2.56995 33.2877 1.36093 31.7625 0.950636C28.998 0.205078 17.9126 0.205078 17.9126 0.205078C17.9126 0.205078 6.82721 0.205078 4.06262 0.950636C2.53743 1.361 1.3362 2.56995 0.928499 4.10508C0.187744 6.88758 0.187744 12.693 0.187744 12.693C0.187744 12.693 0.187744 18.4984 0.928499 21.281C1.3362 22.8161 2.53743 23.9747 4.06262 24.385C6.82721 25.1306 17.9126 25.1306 17.9126 25.1306C17.9126 25.1306 28.9979 25.1306 31.7625 24.385C33.2877 23.9747 34.4889 22.8161 34.8966 21.281C35.6374 18.4984 35.6374 12.693 35.6374 12.693C35.6374 12.693 35.6374 6.88758 34.8966 4.10508ZM14.287 17.9639V7.42211L23.5522 12.6931L14.287 17.9639Z" fill="#EC6608"/>
</svg>
